<?xml version="1.0" encoding="utf-8" standalone="no"?>
<!DOCTYPE svg PUBLIC "-//W3C//DTD SVG 1.1//EN"
  "http://www.w3.org/Graphics/SVG/1.1/DTD/svg11.dtd">
<!-- Created with matplotlib (https://matplotlib.org/) -->
<svg height="262.19625pt" version="1.1" viewBox="0 0 382.603125 262.19625" width="382.603125pt" xmlns="http://www.w3.org/2000/svg" xmlns:xlink="http://www.w3.org/1999/xlink">
 <metadata>
  <rdf:RDF xmlns:cc="http://creativecommons.org/ns#" xmlns:dc="http://purl.org/dc/elements/1.1/" xmlns:rdf="http://www.w3.org/1999/02/22-rdf-syntax-ns#">
   <cc:Work>
    <dc:type rdf:resource="http://purl.org/dc/dcmitype/StillImage"/>
    <dc:date>2021-12-05T18:19:08.180568</dc:date>
    <dc:format>image/svg+xml</dc:format>
    <dc:creator>
     <cc:Agent>
      <dc:title>Matplotlib v3.3.3, https://matplotlib.org/</dc:title>
     </cc:Agent>
    </dc:creator>
   </cc:Work>
  </rdf:RDF>
 </metadata>
 <defs>
  <style type="text/css">*{stroke-linecap:butt;stroke-linejoin:round;}</style>
 </defs>
 <g id="figure_1">
  <g id="patch_1">
   <path d="M 0 262.19625 
L 382.603125 262.19625 
L 382.603125 0 
L 0 0 
z
" style="fill:none;"/>
  </g>
  <g id="axes_1">
   <g id="patch_2">
    <path d="M 40.603125 224.64 
L 375.403125 224.64 
L 375.403125 7.2 
L 40.603125 7.2 
z
" style="fill:#ffffff;"/>
   </g>
   <g id="matplotlib.axis_1">
    <g id="xtick_1">
     <g id="line2d_1">
      <defs>
       <path d="M 0 0 
L 0 3.5 
" id="m896dbd9707" style="stroke:#000000;stroke-width:0.8;"/>
      </defs>
      <g>
       <use style="stroke:#000000;stroke-width:0.8;" x="55.821307" xlink:href="#m896dbd9707" y="224.64"/>
      </g>
     </g>
     <g id="text_1">
      <!-- 0 -->
      <g transform="translate(52.640057 239.238437)scale(0.1 -0.1)">
       <defs>
        <path d="M 31.78125 66.40625 
Q 24.171875 66.40625 20.328125 58.90625 
Q 16.5 51.421875 16.5 36.375 
Q 16.5 21.390625 20.328125 13.890625 
Q 24.171875 6.390625 31.78125 6.390625 
Q 39.453125 6.390625 43.28125 13.890625 
Q 47.125 21.390625 47.125 36.375 
Q 47.125 51.421875 43.28125 58.90625 
Q 39.453125 66.40625 31.78125 66.40625 
z
M 31.78125 74.21875 
Q 44.046875 74.21875 50.515625 64.515625 
Q 56.984375 54.828125 56.984375 36.375 
Q 56.984375 17.96875 50.515625 8.265625 
Q 44.046875 -1.421875 31.78125 -1.421875 
Q 19.53125 -1.421875 13.0625 8.265625 
Q 6.59375 17.96875 6.59375 36.375 
Q 6.59375 54.828125 13.0625 64.515625 
Q 19.53125 74.21875 31.78125 74.21875 
z
" id="DejaVuSans-48"/>
       </defs>
       <use xlink:href="#DejaVuSans-48"/>
      </g>
     </g>
    </g>
    <g id="xtick_2">
     <g id="line2d_2">
      <g>
       <use style="stroke:#000000;stroke-width:0.8;" x="96.813041" xlink:href="#m896dbd9707" y="224.64"/>
      </g>
     </g>
     <g id="text_2">
      <!-- 2 -->
      <g transform="translate(93.631791 239.238437)scale(0.1 -0.1)">
       <defs>
        <path d="M 19.1875 8.296875 
L 53.609375 8.296875 
L 53.609375 0 
L 7.328125 0 
L 7.328125 8.296875 
Q 12.9375 14.109375 22.625 23.890625 
Q 32.328125 33.6875 34.8125 36.53125 
Q 39.546875 41.84375 41.421875 45.53125 
Q 43.3125 49.21875 43.3125 52.78125 
Q 43.3125 58.59375 39.234375 62.25 
Q 35.15625 65.921875 28.609375 65.921875 
Q 23.96875 65.921875 18.8125 64.3125 
Q 13.671875 62.703125 7.8125 59.421875 
L 7.8125 69.390625 
Q 13.765625 71.78125 18.9375 73 
Q 24.125 74.21875 28.421875 74.21875 
Q 39.75 74.21875 46.484375 68.546875 
Q 53.21875 62.890625 53.21875 53.421875 
Q 53.21875 48.921875 51.53125 44.890625 
Q 49.859375 40.875 45.40625 35.40625 
Q 44.1875 33.984375 37.640625 27.21875 
Q 31.109375 20.453125 19.1875 8.296875 
z
" id="DejaVuSans-50"/>
       </defs>
       <use xlink:href="#DejaVuSans-50"/>
      </g>
     </g>
    </g>
    <g id="xtick_3">
     <g id="line2d_3">
      <g>
       <use style="stroke:#000000;stroke-width:0.8;" x="137.804776" xlink:href="#m896dbd9707" y="224.64"/>
      </g>
     </g>
     <g id="text_3">
      <!-- 4 -->
      <g transform="translate(134.623526 239.238437)scale(0.1 -0.1)">
       <defs>
        <path d="M 37.796875 64.3125 
L 12.890625 25.390625 
L 37.796875 25.390625 
z
M 35.203125 72.90625 
L 47.609375 72.90625 
L 47.609375 25.390625 
L 58.015625 25.390625 
L 58.015625 17.1875 
L 47.609375 17.1875 
L 47.609375 0 
L 37.796875 0 
L 37.796875 17.1875 
L 4.890625 17.1875 
L 4.890625 26.703125 
z
" id="DejaVuSans-52"/>
       </defs>
       <use xlink:href="#DejaVuSans-52"/>
      </g>
     </g>
    </g>
    <g id="xtick_4">
     <g id="line2d_4">
      <g>
       <use style="stroke:#000000;stroke-width:0.8;" x="178.79651" xlink:href="#m896dbd9707" y="224.64"/>
      </g>
     </g>
     <g id="text_4">
      <!-- 6 -->
      <g transform="translate(175.61526 239.238437)scale(0.1 -0.1)">
       <defs>
        <path d="M 33.015625 40.375 
Q 26.375 40.375 22.484375 35.828125 
Q 18.609375 31.296875 18.609375 23.390625 
Q 18.609375 15.53125 22.484375 10.953125 
Q 26.375 6.390625 33.015625 6.390625 
Q 39.65625 6.390625 43.53125 10.953125 
Q 47.40625 15.53125 47.40625 23.390625 
Q 47.40625 31.296875 43.53125 35.828125 
Q 39.65625 40.375 33.015625 40.375 
z
M 52.59375 71.296875 
L 52.59375 62.3125 
Q 48.875 64.0625 45.09375 64.984375 
Q 41.3125 65.921875 37.59375 65.921875 
Q 27.828125 65.921875 22.671875 59.328125 
Q 17.53125 52.734375 16.796875 39.40625 
Q 19.671875 43.65625 24.015625 45.921875 
Q 28.375 48.1875 33.59375 48.1875 
Q 44.578125 48.1875 50.953125 41.515625 
Q 57.328125 34.859375 57.328125 23.390625 
Q 57.328125 12.15625 50.6875 5.359375 
Q 44.046875 -1.421875 33.015625 -1.421875 
Q 20.359375 -1.421875 13.671875 8.265625 
Q 6.984375 17.96875 6.984375 36.375 
Q 6.984375 53.65625 15.1875 63.9375 
Q 23.390625 74.21875 37.203125 74.21875 
Q 40.921875 74.21875 44.703125 73.484375 
Q 48.484375 72.75 52.59375 71.296875 
z
" id="DejaVuSans-54"/>
       </defs>
       <use xlink:href="#DejaVuSans-54"/>
      </g>
     </g>
    </g>
    <g id="xtick_5">
     <g id="line2d_5">
      <g>
       <use style="stroke:#000000;stroke-width:0.8;" x="219.788245" xlink:href="#m896dbd9707" y="224.64"/>
      </g>
     </g>
     <g id="text_5">
      <!-- 8 -->
      <g transform="translate(216.606995 239.238437)scale(0.1 -0.1)">
       <defs>
        <path d="M 31.78125 34.625 
Q 24.75 34.625 20.71875 30.859375 
Q 16.703125 27.09375 16.703125 20.515625 
Q 16.703125 13.921875 20.71875 10.15625 
Q 24.75 6.390625 31.78125 6.390625 
Q 38.8125 6.390625 42.859375 10.171875 
Q 46.921875 13.96875 46.921875 20.515625 
Q 46.921875 27.09375 42.890625 30.859375 
Q 38.875 34.625 31.78125 34.625 
z
M 21.921875 38.8125 
Q 15.578125 40.375 12.03125 44.71875 
Q 8.5 49.078125 8.5 55.328125 
Q 8.5 64.0625 14.71875 69.140625 
Q 20.953125 74.21875 31.78125 74.21875 
Q 42.671875 74.21875 48.875 69.140625 
Q 55.078125 64.0625 55.078125 55.328125 
Q 55.078125 49.078125 51.53125 44.71875 
Q 48 40.375 41.703125 38.8125 
Q 48.828125 37.15625 52.796875 32.3125 
Q 56.78125 27.484375 56.78125 20.515625 
Q 56.78125 9.90625 50.3125 4.234375 
Q 43.84375 -1.421875 31.78125 -1.421875 
Q 19.734375 -1.421875 13.25 4.234375 
Q 6.78125 9.90625 6.78125 20.515625 
Q 6.78125 27.484375 10.78125 32.3125 
Q 14.796875 37.15625 21.921875 38.8125 
z
M 18.3125 54.390625 
Q 18.3125 48.734375 21.84375 45.5625 
Q 25.390625 42.390625 31.78125 42.390625 
Q 38.140625 42.390625 41.71875 45.5625 
Q 45.3125 48.734375 45.3125 54.390625 
Q 45.3125 60.0625 41.71875 63.234375 
Q 38.140625 66.40625 31.78125 66.40625 
Q 25.390625 66.40625 21.84375 63.234375 
Q 18.3125 60.0625 18.3125 54.390625 
z
" id="DejaVuSans-56"/>
       </defs>
       <use xlink:href="#DejaVuSans-56"/>
      </g>
     </g>
    </g>
    <g id="xtick_6">
     <g id="line2d_6">
      <g>
       <use style="stroke:#000000;stroke-width:0.8;" x="260.779979" xlink:href="#m896dbd9707" y="224.64"/>
      </g>
     </g>
     <g id="text_6">
      <!-- 10 -->
      <g transform="translate(254.417479 239.238437)scale(0.1 -0.1)">
       <defs>
        <path d="M 12.40625 8.296875 
L 28.515625 8.296875 
L 28.515625 63.921875 
L 10.984375 60.40625 
L 10.984375 69.390625 
L 28.421875 72.90625 
L 38.28125 72.90625 
L 38.28125 8.296875 
L 54.390625 8.296875 
L 54.390625 0 
L 12.40625 0 
z
" id="DejaVuSans-49"/>
       </defs>
       <use xlink:href="#DejaVuSans-49"/>
       <use x="63.623047" xlink:href="#DejaVuSans-48"/>
      </g>
     </g>
    </g>
    <g id="xtick_7">
     <g id="line2d_7">
      <g>
       <use style="stroke:#000000;stroke-width:0.8;" x="301.771714" xlink:href="#m896dbd9707" y="224.64"/>
      </g>
     </g>
     <g id="text_7">
      <!-- 12 -->
      <g transform="translate(295.409214 239.238437)scale(0.1 -0.1)">
       <use xlink:href="#DejaVuSans-49"/>
       <use x="63.623047" xlink:href="#DejaVuSans-50"/>
      </g>
     </g>
    </g>
    <g id="xtick_8">
     <g id="line2d_8">
      <g>
       <use style="stroke:#000000;stroke-width:0.8;" x="342.763448" xlink:href="#m896dbd9707" y="224.64"/>
      </g>
     </g>
     <g id="text_8">
      <!-- 14 -->
      <g transform="translate(336.400948 239.238437)scale(0.1 -0.1)">
       <use xlink:href="#DejaVuSans-49"/>
       <use x="63.623047" xlink:href="#DejaVuSans-52"/>
      </g>
     </g>
    </g>
    <g id="text_9">
     <!-- $t$ -->
     <g transform="translate(206.003125 252.916562)scale(0.1 -0.1)">
      <defs>
       <path d="M 42.28125 54.6875 
L 40.921875 47.703125 
L 23 47.703125 
L 17.1875 18.015625 
Q 16.890625 16.359375 16.75 15.234375 
Q 16.609375 14.109375 16.609375 13.484375 
Q 16.609375 10.359375 18.484375 8.9375 
Q 20.359375 7.515625 24.515625 7.515625 
L 33.59375 7.515625 
L 32.078125 0 
L 23.484375 0 
Q 15.484375 0 11.546875 3.125 
Q 7.625 6.25 7.625 12.59375 
Q 7.625 13.71875 7.765625 15.0625 
Q 7.90625 16.40625 8.203125 18.015625 
L 14.015625 47.703125 
L 6.390625 47.703125 
L 7.8125 54.6875 
L 15.28125 54.6875 
L 18.3125 70.21875 
L 27.296875 70.21875 
L 24.3125 54.6875 
z
" id="DejaVuSans-Oblique-116"/>
      </defs>
      <use transform="translate(0 0.78125)" xlink:href="#DejaVuSans-Oblique-116"/>
     </g>
    </g>
   </g>
   <g id="matplotlib.axis_2">
    <g id="ytick_1">
     <g id="line2d_9">
      <defs>
       <path d="M 0 0 
L -3.5 0 
" id="m1f2f3f231a" style="stroke:#000000;stroke-width:0.8;"/>
      </defs>
      <g>
       <use style="stroke:#000000;stroke-width:0.8;" x="40.603125" xlink:href="#m1f2f3f231a" y="206.760747"/>
      </g>
     </g>
     <g id="text_10">
      <!-- 5 -->
      <g transform="translate(27.240625 210.559966)scale(0.1 -0.1)">
       <defs>
        <path d="M 10.796875 72.90625 
L 49.515625 72.90625 
L 49.515625 64.59375 
L 19.828125 64.59375 
L 19.828125 46.734375 
Q 21.96875 47.46875 24.109375 47.828125 
Q 26.265625 48.1875 28.421875 48.1875 
Q 40.625 48.1875 47.75 41.5 
Q 54.890625 34.8125 54.890625 23.390625 
Q 54.890625 11.625 47.5625 5.09375 
Q 40.234375 -1.421875 26.90625 -1.421875 
Q 22.3125 -1.421875 17.546875 -0.640625 
Q 12.796875 0.140625 7.71875 1.703125 
L 7.71875 11.625 
Q 12.109375 9.234375 16.796875 8.0625 
Q 21.484375 6.890625 26.703125 6.890625 
Q 35.15625 6.890625 40.078125 11.328125 
Q 45.015625 15.765625 45.015625 23.390625 
Q 45.015625 31 40.078125 35.4375 
Q 35.15625 39.890625 26.703125 39.890625 
Q 22.75 39.890625 18.8125 39.015625 
Q 14.890625 38.140625 10.796875 36.28125 
z
" id="DejaVuSans-53"/>
       </defs>
       <use xlink:href="#DejaVuSans-53"/>
      </g>
     </g>
    </g>
    <g id="ytick_2">
     <g id="line2d_10">
      <g>
       <use style="stroke:#000000;stroke-width:0.8;" x="40.603125" xlink:href="#m1f2f3f231a" y="180.108692"/>
      </g>
     </g>
     <g id="text_11">
      <!-- 10 -->
      <g transform="translate(20.878125 183.90791)scale(0.1 -0.1)">
       <use xlink:href="#DejaVuSans-49"/>
       <use x="63.623047" xlink:href="#DejaVuSans-48"/>
      </g>
     </g>
    </g>
    <g id="ytick_3">
     <g id="line2d_11">
      <g>
       <use style="stroke:#000000;stroke-width:0.8;" x="40.603125" xlink:href="#m1f2f3f231a" y="153.456636"/>
      </g>
     </g>
     <g id="text_12">
      <!-- 15 -->
      <g transform="translate(20.878125 157.255855)scale(0.1 -0.1)">
       <use xlink:href="#DejaVuSans-49"/>
       <use x="63.623047" xlink:href="#DejaVuSans-53"/>
      </g>
     </g>
    </g>
    <g id="ytick_4">
     <g id="line2d_12">
      <g>
       <use style="stroke:#000000;stroke-width:0.8;" x="40.603125" xlink:href="#m1f2f3f231a" y="126.804581"/>
      </g>
     </g>
     <g id="text_13">
      <!-- 20 -->
      <g transform="translate(20.878125 130.603799)scale(0.1 -0.1)">
       <use xlink:href="#DejaVuSans-50"/>
       <use x="63.623047" xlink:href="#DejaVuSans-48"/>
      </g>
     </g>
    </g>
    <g id="ytick_5">
     <g id="line2d_13">
      <g>
       <use style="stroke:#000000;stroke-width:0.8;" x="40.603125" xlink:href="#m1f2f3f231a" y="100.152525"/>
      </g>
     </g>
     <g id="text_14">
      <!-- 25 -->
      <g transform="translate(20.878125 103.951744)scale(0.1 -0.1)">
       <use xlink:href="#DejaVuSans-50"/>
       <use x="63.623047" xlink:href="#DejaVuSans-53"/>
      </g>
     </g>
    </g>
    <g id="ytick_6">
     <g id="line2d_14">
      <g>
       <use style="stroke:#000000;stroke-width:0.8;" x="40.603125" xlink:href="#m1f2f3f231a" y="73.50047"/>
      </g>
     </g>
     <g id="text_15">
      <!-- 30 -->
      <g transform="translate(20.878125 77.299688)scale(0.1 -0.1)">
       <defs>
        <path d="M 40.578125 39.3125 
Q 47.65625 37.796875 51.625 33 
Q 55.609375 28.21875 55.609375 21.1875 
Q 55.609375 10.40625 48.1875 4.484375 
Q 40.765625 -1.421875 27.09375 -1.421875 
Q 22.515625 -1.421875 17.65625 -0.515625 
Q 12.796875 0.390625 7.625 2.203125 
L 7.625 11.71875 
Q 11.71875 9.328125 16.59375 8.109375 
Q 21.484375 6.890625 26.8125 6.890625 
Q 36.078125 6.890625 40.9375 10.546875 
Q 45.796875 14.203125 45.796875 21.1875 
Q 45.796875 27.640625 41.28125 31.265625 
Q 36.765625 34.90625 28.71875 34.90625 
L 20.21875 34.90625 
L 20.21875 43.015625 
L 29.109375 43.015625 
Q 36.375 43.015625 40.234375 45.921875 
Q 44.09375 48.828125 44.09375 54.296875 
Q 44.09375 59.90625 40.109375 62.90625 
Q 36.140625 65.921875 28.71875 65.921875 
Q 24.65625 65.921875 20.015625 65.03125 
Q 15.375 64.15625 9.8125 62.3125 
L 9.8125 71.09375 
Q 15.4375 72.65625 20.34375 73.4375 
Q 25.25 74.21875 29.59375 74.21875 
Q 40.828125 74.21875 47.359375 69.109375 
Q 53.90625 64.015625 53.90625 55.328125 
Q 53.90625 49.265625 50.4375 45.09375 
Q 46.96875 40.921875 40.578125 39.3125 
z
" id="DejaVuSans-51"/>
       </defs>
       <use xlink:href="#DejaVuSans-51"/>
       <use x="63.623047" xlink:href="#DejaVuSans-48"/>
      </g>
     </g>
    </g>
    <g id="ytick_7">
     <g id="line2d_15">
      <g>
       <use style="stroke:#000000;stroke-width:0.8;" x="40.603125" xlink:href="#m1f2f3f231a" y="46.848414"/>
      </g>
     </g>
     <g id="text_16">
      <!-- 35 -->
      <g transform="translate(20.878125 50.647633)scale(0.1 -0.1)">
       <use xlink:href="#DejaVuSans-51"/>
       <use x="63.623047" xlink:href="#DejaVuSans-53"/>
      </g>
     </g>
    </g>
    <g id="ytick_8">
     <g id="line2d_16">
      <g>
       <use style="stroke:#000000;stroke-width:0.8;" x="40.603125" xlink:href="#m1f2f3f231a" y="20.196359"/>
      </g>
     </g>
     <g id="text_17">
      <!-- 40 -->
      <g transform="translate(20.878125 23.995577)scale(0.1 -0.1)">
       <use xlink:href="#DejaVuSans-52"/>
       <use x="63.623047" xlink:href="#DejaVuSans-48"/>
      </g>
     </g>
    </g>
    <g id="text_18">
     <!-- $x_b$ -->
     <g transform="translate(14.798438 121.27)rotate(-90)scale(0.1 -0.1)">
      <defs>
       <path d="M 60.015625 54.6875 
L 34.90625 27.875 
L 50.296875 0 
L 39.984375 0 
L 28.421875 21.6875 
L 8.296875 0 
L -2.59375 0 
L 24.3125 28.8125 
L 10.015625 54.6875 
L 20.3125 54.6875 
L 30.8125 34.90625 
L 49.125 54.6875 
z
" id="DejaVuSans-Oblique-120"/>
       <path d="M 49.515625 33.40625 
Q 49.515625 40.484375 46.265625 44.484375 
Q 43.015625 48.484375 37.3125 48.484375 
Q 33.15625 48.484375 29.515625 46.453125 
Q 25.875 44.4375 23.1875 40.578125 
Q 20.359375 36.53125 18.71875 31.171875 
Q 17.09375 25.828125 17.09375 20.515625 
Q 17.09375 13.765625 20.28125 9.9375 
Q 23.484375 6.109375 29.109375 6.109375 
Q 33.34375 6.109375 36.953125 8.078125 
Q 40.578125 10.0625 43.3125 13.921875 
Q 46.09375 17.921875 47.796875 23.234375 
Q 49.515625 28.5625 49.515625 33.40625 
z
M 21.578125 46.390625 
Q 24.90625 50.875 29.90625 53.4375 
Q 34.90625 56 40.375 56 
Q 48.78125 56 53.734375 50.328125 
Q 58.6875 44.671875 58.6875 35.015625 
Q 58.6875 27.09375 55.78125 19.671875 
Q 52.875 12.25 47.515625 6.5 
Q 44 2.6875 39.40625 0.625 
Q 34.8125 -1.421875 29.78125 -1.421875 
Q 24.46875 -1.421875 20.5625 1.015625 
Q 16.65625 3.46875 14.203125 8.296875 
L 12.59375 0 
L 3.609375 0 
L 18.40625 75.984375 
L 27.390625 75.984375 
z
" id="DejaVuSans-Oblique-98"/>
      </defs>
      <use transform="translate(0 0.3125)" xlink:href="#DejaVuSans-Oblique-120"/>
      <use transform="translate(59.179688 -16.09375)scale(0.7)" xlink:href="#DejaVuSans-Oblique-98"/>
     </g>
    </g>
   </g>
   <g id="line2d_17">
    <path clip-path="url(#p1575035d74)" d="M 55.821307 214.756364 
L 58.916002 214.636989 
L 61.997154 214.291536 
L 65.281459 213.695884 
L 68.735058 212.839557 
L 72.561103 211.655612 
L 76.65802 210.150409 
L 81.262818 208.217022 
L 86.375498 205.824142 
L 92.233073 202.830393 
L 98.801682 199.216931 
L 106.453774 194.748789 
L 115.494076 189.209437 
L 125.956449 182.541757 
L 138.619645 174.207789 
L 154.668721 163.359335 
L 174.06982 149.971872 
L 202.748233 129.849334 
L 247.949747 97.693001 
L 311.299583 52.247805 
L 360.157848 17.083636 
L 360.157848 17.083636 
" style="fill:none;stroke:#1f77b4;stroke-linecap:square;stroke-width:1.5;"/>
   </g>
   <g id="patch_3">
    <path d="M 40.603125 224.64 
L 40.603125 7.2 
" style="fill:none;stroke:#000000;stroke-linecap:square;stroke-linejoin:miter;stroke-width:0.8;"/>
   </g>
   <g id="patch_4">
    <path d="M 375.403125 224.64 
L 375.403125 7.2 
" style="fill:none;stroke:#000000;stroke-linecap:square;stroke-linejoin:miter;stroke-width:0.8;"/>
   </g>
   <g id="patch_5">
    <path d="M 40.603125 224.64 
L 375.403125 224.64 
" style="fill:none;stroke:#000000;stroke-linecap:square;stroke-linejoin:miter;stroke-width:0.8;"/>
   </g>
   <g id="patch_6">
    <path d="M 40.603125 7.2 
L 375.403125 7.2 
" style="fill:none;stroke:#000000;stroke-linecap:square;stroke-linejoin:miter;stroke-width:0.8;"/>
   </g>
   <g id="PathCollection_1">
    <defs>
     <path d="M 0 1.118034 
C 0.296506 1.118034 0.580908 1.000231 0.790569 0.790569 
C 1.000231 0.580908 1.118034 0.296506 1.118034 0 
C 1.118034 -0.296506 1.000231 -0.580908 0.790569 -0.790569 
C 0.580908 -1.000231 0.296506 -1.118034 0 -1.118034 
C -0.296506 -1.118034 -0.580908 -1.000231 -0.790569 -0.790569 
C -1.000231 -0.580908 -1.118034 -0.296506 -1.118034 0 
C -1.118034 0.296506 -1.000231 0.580908 -0.790569 0.790569 
C -0.580908 1.000231 -0.296506 1.118034 0 1.118034 
z
" id="m643c2044da" style="stroke:#ff7f0e;"/>
    </defs>
    <g clip-path="url(#p1575035d74)">
     <use style="fill:#ff7f0e;stroke:#ff7f0e;" x="55.821307" xlink:href="#m643c2044da" y="214.756364"/>
     <use style="fill:#ff7f0e;stroke:#ff7f0e;" x="58.895687" xlink:href="#m643c2044da" y="214.639556"/>
     <use style="fill:#ff7f0e;stroke:#ff7f0e;" x="61.970067" xlink:href="#m643c2044da" y="214.296491"/>
     <use style="fill:#ff7f0e;stroke:#ff7f0e;" x="65.044447" xlink:href="#m643c2044da" y="213.746297"/>
     <use style="fill:#ff7f0e;stroke:#ff7f0e;" x="68.118828" xlink:href="#m643c2044da" y="213.006498"/>
     <use style="fill:#ff7f0e;stroke:#ff7f0e;" x="71.193207" xlink:href="#m643c2044da" y="212.100413"/>
     <use style="fill:#ff7f0e;stroke:#ff7f0e;" x="74.267587" xlink:href="#m643c2044da" y="211.061485"/>
     <use style="fill:#ff7f0e;stroke:#ff7f0e;" x="77.341966" xlink:href="#m643c2044da" y="209.880675"/>
     <use style="fill:#ff7f0e;stroke:#ff7f0e;" x="80.416348" xlink:href="#m643c2044da" y="208.589065"/>
     <use style="fill:#ff7f0e;stroke:#ff7f0e;" x="83.490728" xlink:href="#m643c2044da" y="207.20074"/>
     <use style="fill:#ff7f0e;stroke:#ff7f0e;" x="86.565108" xlink:href="#m643c2044da" y="205.724424"/>
     <use style="fill:#ff7f0e;stroke:#ff7f0e;" x="89.63949" xlink:href="#m643c2044da" y="204.192514"/>
     <use style="fill:#ff7f0e;stroke:#ff7f0e;" x="92.713869" xlink:href="#m643c2044da" y="202.57788"/>
     <use style="fill:#ff7f0e;stroke:#ff7f0e;" x="95.788249" xlink:href="#m643c2044da" y="200.903141"/>
     <use style="fill:#ff7f0e;stroke:#ff7f0e;" x="98.862631" xlink:href="#m643c2044da" y="199.178508"/>
     <use style="fill:#ff7f0e;stroke:#ff7f0e;" x="101.937008" xlink:href="#m643c2044da" y="197.407461"/>
     <use style="fill:#ff7f0e;stroke:#ff7f0e;" x="105.01139" xlink:href="#m643c2044da" y="195.616446"/>
     <use style="fill:#ff7f0e;stroke:#ff7f0e;" x="108.085772" xlink:href="#m643c2044da" y="193.771632"/>
     <use style="fill:#ff7f0e;stroke:#ff7f0e;" x="111.160149" xlink:href="#m643c2044da" y="191.895285"/>
     <use style="fill:#ff7f0e;stroke:#ff7f0e;" x="114.234531" xlink:href="#m643c2044da" y="189.990532"/>
     <use style="fill:#ff7f0e;stroke:#ff7f0e;" x="117.308909" xlink:href="#m643c2044da" y="188.062293"/>
     <use style="fill:#ff7f0e;stroke:#ff7f0e;" x="120.383291" xlink:href="#m643c2044da" y="186.131045"/>
     <use style="fill:#ff7f0e;stroke:#ff7f0e;" x="123.457673" xlink:href="#m643c2044da" y="184.158529"/>
     <use style="fill:#ff7f0e;stroke:#ff7f0e;" x="126.53205" xlink:href="#m643c2044da" y="182.168633"/>
     <use style="fill:#ff7f0e;stroke:#ff7f0e;" x="129.606427" xlink:href="#m643c2044da" y="180.160441"/>
     <use style="fill:#ff7f0e;stroke:#ff7f0e;" x="132.680809" xlink:href="#m643c2044da" y="178.136445"/>
     <use style="fill:#ff7f0e;stroke:#ff7f0e;" x="135.755186" xlink:href="#m643c2044da" y="176.121686"/>
     <use style="fill:#ff7f0e;stroke:#ff7f0e;" x="138.829563" xlink:href="#m643c2044da" y="174.072186"/>
     <use style="fill:#ff7f0e;stroke:#ff7f0e;" x="141.903945" xlink:href="#m643c2044da" y="172.009118"/>
     <use style="fill:#ff7f0e;stroke:#ff7f0e;" x="144.978327" xlink:href="#m643c2044da" y="169.936219"/>
     <use style="fill:#ff7f0e;stroke:#ff7f0e;" x="148.052709" xlink:href="#m643c2044da" y="167.854484"/>
     <use style="fill:#ff7f0e;stroke:#ff7f0e;" x="151.127091" xlink:href="#m643c2044da" y="165.784508"/>
     <use style="fill:#ff7f0e;stroke:#ff7f0e;" x="154.201473" xlink:href="#m643c2044da" y="163.683248"/>
     <use style="fill:#ff7f0e;stroke:#ff7f0e;" x="157.275856" xlink:href="#m643c2044da" y="161.575639"/>
     <use style="fill:#ff7f0e;stroke:#ff7f0e;" x="160.350238" xlink:href="#m643c2044da" y="159.460862"/>
     <use style="fill:#ff7f0e;stroke:#ff7f0e;" x="163.42461" xlink:href="#m643c2044da" y="157.338338"/>
     <use style="fill:#ff7f0e;stroke:#ff7f0e;" x="166.498992" xlink:href="#m643c2044da" y="155.234429"/>
     <use style="fill:#ff7f0e;stroke:#ff7f0e;" x="169.573374" xlink:href="#m643c2044da" y="153.104066"/>
     <use style="fill:#ff7f0e;stroke:#ff7f0e;" x="172.647756" xlink:href="#m643c2044da" y="150.962566"/>
     <use style="fill:#ff7f0e;stroke:#ff7f0e;" x="175.722138" xlink:href="#m643c2044da" y="148.815956"/>
     <use style="fill:#ff7f0e;stroke:#ff7f0e;" x="178.79651" xlink:href="#m643c2044da" y="146.668986"/>
     <use style="fill:#ff7f0e;stroke:#ff7f0e;" x="181.870892" xlink:href="#m643c2044da" y="144.540361"/>
     <use style="fill:#ff7f0e;stroke:#ff7f0e;" x="184.945274" xlink:href="#m643c2044da" y="142.382019"/>
     <use style="fill:#ff7f0e;stroke:#ff7f0e;" x="188.019647" xlink:href="#m643c2044da" y="140.223992"/>
     <use style="fill:#ff7f0e;stroke:#ff7f0e;" x="191.094029" xlink:href="#m643c2044da" y="138.061796"/>
     <use style="fill:#ff7f0e;stroke:#ff7f0e;" x="194.168411" xlink:href="#m643c2044da" y="135.890989"/>
     <use style="fill:#ff7f0e;stroke:#ff7f0e;" x="197.242793" xlink:href="#m643c2044da" y="133.744654"/>
     <use style="fill:#ff7f0e;stroke:#ff7f0e;" x="200.317175" xlink:href="#m643c2044da" y="131.573674"/>
     <use style="fill:#ff7f0e;stroke:#ff7f0e;" x="203.391547" xlink:href="#m643c2044da" y="129.393544"/>
     <use style="fill:#ff7f0e;stroke:#ff7f0e;" x="206.465929" xlink:href="#m643c2044da" y="127.211055"/>
     <use style="fill:#ff7f0e;stroke:#ff7f0e;" x="209.540311" xlink:href="#m643c2044da" y="125.031627"/>
     <use style="fill:#ff7f0e;stroke:#ff7f0e;" x="212.614683" xlink:href="#m643c2044da" y="122.87178"/>
     <use style="fill:#ff7f0e;stroke:#ff7f0e;" x="215.689065" xlink:href="#m643c2044da" y="120.681676"/>
     <use style="fill:#ff7f0e;stroke:#ff7f0e;" x="218.763447" xlink:href="#m643c2044da" y="118.495364"/>
     <use style="fill:#ff7f0e;stroke:#ff7f0e;" x="221.83782" xlink:href="#m643c2044da" y="116.308422"/>
     <use style="fill:#ff7f0e;stroke:#ff7f0e;" x="224.912212" xlink:href="#m643c2044da" y="114.113723"/>
     <use style="fill:#ff7f0e;stroke:#ff7f0e;" x="227.986584" xlink:href="#m643c2044da" y="111.945519"/>
     <use style="fill:#ff7f0e;stroke:#ff7f0e;" x="231.060956" xlink:href="#m643c2044da" y="109.754042"/>
     <use style="fill:#ff7f0e;stroke:#ff7f0e;" x="234.135348" xlink:href="#m643c2044da" y="107.555185"/>
     <use style="fill:#ff7f0e;stroke:#ff7f0e;" x="237.20972" xlink:href="#m643c2044da" y="105.355066"/>
     <use style="fill:#ff7f0e;stroke:#ff7f0e;" x="240.284112" xlink:href="#m643c2044da" y="103.16113"/>
     <use style="fill:#ff7f0e;stroke:#ff7f0e;" x="243.358484" xlink:href="#m643c2044da" y="100.98592"/>
     <use style="fill:#ff7f0e;stroke:#ff7f0e;" x="246.432857" xlink:href="#m643c2044da" y="98.780861"/>
     <use style="fill:#ff7f0e;stroke:#ff7f0e;" x="249.507248" xlink:href="#m643c2044da" y="96.582318"/>
     <use style="fill:#ff7f0e;stroke:#ff7f0e;" x="252.58164" xlink:href="#m643c2044da" y="94.381966"/>
     <use style="fill:#ff7f0e;stroke:#ff7f0e;" x="255.656012" xlink:href="#m643c2044da" y="92.174009"/>
     <use style="fill:#ff7f0e;stroke:#ff7f0e;" x="258.730404" xlink:href="#m643c2044da" y="89.992141"/>
     <use style="fill:#ff7f0e;stroke:#ff7f0e;" x="261.804777" xlink:href="#m643c2044da" y="87.790141"/>
     <use style="fill:#ff7f0e;stroke:#ff7f0e;" x="264.879168" xlink:href="#m643c2044da" y="85.581402"/>
     <use style="fill:#ff7f0e;stroke:#ff7f0e;" x="267.953541" xlink:href="#m643c2044da" y="83.369683"/>
     <use style="fill:#ff7f0e;stroke:#ff7f0e;" x="271.027913" xlink:href="#m643c2044da" y="81.164654"/>
     <use style="fill:#ff7f0e;stroke:#ff7f0e;" x="274.102305" xlink:href="#m643c2044da" y="78.981484"/>
     <use style="fill:#ff7f0e;stroke:#ff7f0e;" x="277.176677" xlink:href="#m643c2044da" y="76.767447"/>
     <use style="fill:#ff7f0e;stroke:#ff7f0e;" x="280.251049" xlink:href="#m643c2044da" y="74.557396"/>
     <use style="fill:#ff7f0e;stroke:#ff7f0e;" x="283.325441" xlink:href="#m643c2044da" y="72.350669"/>
     <use style="fill:#ff7f0e;stroke:#ff7f0e;" x="286.399813" xlink:href="#m643c2044da" y="70.135595"/>
     <use style="fill:#ff7f0e;stroke:#ff7f0e;" x="289.474205" xlink:href="#m643c2044da" y="67.945318"/>
     <use style="fill:#ff7f0e;stroke:#ff7f0e;" x="292.548577" xlink:href="#m643c2044da" y="65.736466"/>
     <use style="fill:#ff7f0e;stroke:#ff7f0e;" x="295.62295" xlink:href="#m643c2044da" y="63.52246"/>
     <use style="fill:#ff7f0e;stroke:#ff7f0e;" x="298.697341" xlink:href="#m643c2044da" y="61.303502"/>
     <use style="fill:#ff7f0e;stroke:#ff7f0e;" x="301.771714" xlink:href="#m643c2044da" y="59.091316"/>
     <use style="fill:#ff7f0e;stroke:#ff7f0e;" x="304.846086" xlink:href="#m643c2044da" y="56.904262"/>
     <use style="fill:#ff7f0e;stroke:#ff7f0e;" x="307.920478" xlink:href="#m643c2044da" y="54.683149"/>
     <use style="fill:#ff7f0e;stroke:#ff7f0e;" x="310.99485" xlink:href="#m643c2044da" y="52.46657"/>
     <use style="fill:#ff7f0e;stroke:#ff7f0e;" x="314.069242" xlink:href="#m643c2044da" y="50.25599"/>
     <use style="fill:#ff7f0e;stroke:#ff7f0e;" x="317.143614" xlink:href="#m643c2044da" y="48.036565"/>
     <use style="fill:#ff7f0e;stroke:#ff7f0e;" x="320.217986" xlink:href="#m643c2044da" y="45.839812"/>
     <use style="fill:#ff7f0e;stroke:#ff7f0e;" x="323.292378" xlink:href="#m643c2044da" y="43.628378"/>
     <use style="fill:#ff7f0e;stroke:#ff7f0e;" x="326.366751" xlink:href="#m643c2044da" y="41.413222"/>
     <use style="fill:#ff7f0e;stroke:#ff7f0e;" x="329.441123" xlink:href="#m643c2044da" y="39.188266"/>
     <use style="fill:#ff7f0e;stroke:#ff7f0e;" x="332.515515" xlink:href="#m643c2044da" y="36.973538"/>
     <use style="fill:#ff7f0e;stroke:#ff7f0e;" x="335.589887" xlink:href="#m643c2044da" y="34.786118"/>
     <use style="fill:#ff7f0e;stroke:#ff7f0e;" x="338.664279" xlink:href="#m643c2044da" y="32.561752"/>
     <use style="fill:#ff7f0e;stroke:#ff7f0e;" x="341.738651" xlink:href="#m643c2044da" y="30.341452"/>
     <use style="fill:#ff7f0e;stroke:#ff7f0e;" x="344.813023" xlink:href="#m643c2044da" y="28.131136"/>
     <use style="fill:#ff7f0e;stroke:#ff7f0e;" x="347.887415" xlink:href="#m643c2044da" y="25.910613"/>
     <use style="fill:#ff7f0e;stroke:#ff7f0e;" x="350.961787" xlink:href="#m643c2044da" y="23.710606"/>
     <use style="fill:#ff7f0e;stroke:#ff7f0e;" x="354.036179" xlink:href="#m643c2044da" y="21.500006"/>
     <use style="fill:#ff7f0e;stroke:#ff7f0e;" x="357.110551" xlink:href="#m643c2044da" y="19.285176"/>
     <use style="fill:#ff7f0e;stroke:#ff7f0e;" x="360.184943" xlink:href="#m643c2044da" y="17.083645"/>
    </g>
   </g>
   <g id="legend_1">
    <g id="patch_7">
     <path d="M 47.603125 44.55625 
L 154.059375 44.55625 
Q 156.059375 44.55625 156.059375 42.55625 
L 156.059375 14.2 
Q 156.059375 12.2 154.059375 12.2 
L 47.603125 12.2 
Q 45.603125 12.2 45.603125 14.2 
L 45.603125 42.55625 
Q 45.603125 44.55625 47.603125 44.55625 
z
" style="fill:#ffffff;opacity:0.8;stroke:#cccccc;stroke-linejoin:miter;"/>
    </g>
    <g id="line2d_18">
     <path d="M 49.603125 20.298437 
L 69.603125 20.298437 
" style="fill:none;stroke:#1f77b4;stroke-linecap:square;stroke-width:1.5;"/>
    </g>
    <g id="line2d_19"/>
    <g id="text_19">
     <!-- center of mass -->
     <g transform="translate(77.603125 23.798437)scale(0.1 -0.1)">
      <defs>
       <path d="M 48.78125 52.59375 
L 48.78125 44.1875 
Q 44.96875 46.296875 41.140625 47.34375 
Q 37.3125 48.390625 33.40625 48.390625 
Q 24.65625 48.390625 19.8125 42.84375 
Q 14.984375 37.3125 14.984375 27.296875 
Q 14.984375 17.28125 19.8125 11.734375 
Q 24.65625 6.203125 33.40625 6.203125 
Q 37.3125 6.203125 41.140625 7.25 
Q 44.96875 8.296875 48.78125 10.40625 
L 48.78125 2.09375 
Q 45.015625 0.34375 40.984375 -0.53125 
Q 36.96875 -1.421875 32.421875 -1.421875 
Q 20.0625 -1.421875 12.78125 6.34375 
Q 5.515625 14.109375 5.515625 27.296875 
Q 5.515625 40.671875 12.859375 48.328125 
Q 20.21875 56 33.015625 56 
Q 37.15625 56 41.109375 55.140625 
Q 45.0625 54.296875 48.78125 52.59375 
z
" id="DejaVuSans-99"/>
       <path d="M 56.203125 29.59375 
L 56.203125 25.203125 
L 14.890625 25.203125 
Q 15.484375 15.921875 20.484375 11.0625 
Q 25.484375 6.203125 34.421875 6.203125 
Q 39.59375 6.203125 44.453125 7.46875 
Q 49.3125 8.734375 54.109375 11.28125 
L 54.109375 2.78125 
Q 49.265625 0.734375 44.1875 -0.34375 
Q 39.109375 -1.421875 33.890625 -1.421875 
Q 20.796875 -1.421875 13.15625 6.1875 
Q 5.515625 13.8125 5.515625 26.8125 
Q 5.515625 40.234375 12.765625 48.109375 
Q 20.015625 56 32.328125 56 
Q 43.359375 56 49.78125 48.890625 
Q 56.203125 41.796875 56.203125 29.59375 
z
M 47.21875 32.234375 
Q 47.125 39.59375 43.09375 43.984375 
Q 39.0625 48.390625 32.421875 48.390625 
Q 24.90625 48.390625 20.390625 44.140625 
Q 15.875 39.890625 15.1875 32.171875 
z
" id="DejaVuSans-101"/>
       <path d="M 54.890625 33.015625 
L 54.890625 0 
L 45.90625 0 
L 45.90625 32.71875 
Q 45.90625 40.484375 42.875 44.328125 
Q 39.84375 48.1875 33.796875 48.1875 
Q 26.515625 48.1875 22.3125 43.546875 
Q 18.109375 38.921875 18.109375 30.90625 
L 18.109375 0 
L 9.078125 0 
L 9.078125 54.6875 
L 18.109375 54.6875 
L 18.109375 46.1875 
Q 21.34375 51.125 25.703125 53.5625 
Q 30.078125 56 35.796875 56 
Q 45.21875 56 50.046875 50.171875 
Q 54.890625 44.34375 54.890625 33.015625 
z
" id="DejaVuSans-110"/>
       <path d="M 18.3125 70.21875 
L 18.3125 54.6875 
L 36.8125 54.6875 
L 36.8125 47.703125 
L 18.3125 47.703125 
L 18.3125 18.015625 
Q 18.3125 11.328125 20.140625 9.421875 
Q 21.96875 7.515625 27.59375 7.515625 
L 36.8125 7.515625 
L 36.8125 0 
L 27.59375 0 
Q 17.1875 0 13.234375 3.875 
Q 9.28125 7.765625 9.28125 18.015625 
L 9.28125 47.703125 
L 2.6875 47.703125 
L 2.6875 54.6875 
L 9.28125 54.6875 
L 9.28125 70.21875 
z
" id="DejaVuSans-116"/>
       <path d="M 41.109375 46.296875 
Q 39.59375 47.171875 37.8125 47.578125 
Q 36.03125 48 33.890625 48 
Q 26.265625 48 22.1875 43.046875 
Q 18.109375 38.09375 18.109375 28.8125 
L 18.109375 0 
L 9.078125 0 
L 9.078125 54.6875 
L 18.109375 54.6875 
L 18.109375 46.1875 
Q 20.953125 51.171875 25.484375 53.578125 
Q 30.03125 56 36.53125 56 
Q 37.453125 56 38.578125 55.875 
Q 39.703125 55.765625 41.0625 55.515625 
z
" id="DejaVuSans-114"/>
       <path id="DejaVuSans-32"/>
       <path d="M 30.609375 48.390625 
Q 23.390625 48.390625 19.1875 42.75 
Q 14.984375 37.109375 14.984375 27.296875 
Q 14.984375 17.484375 19.15625 11.84375 
Q 23.34375 6.203125 30.609375 6.203125 
Q 37.796875 6.203125 41.984375 11.859375 
Q 46.1875 17.53125 46.1875 27.296875 
Q 46.1875 37.015625 41.984375 42.703125 
Q 37.796875 48.390625 30.609375 48.390625 
z
M 30.609375 56 
Q 42.328125 56 49.015625 48.375 
Q 55.71875 40.765625 55.71875 27.296875 
Q 55.71875 13.875 49.015625 6.21875 
Q 42.328125 -1.421875 30.609375 -1.421875 
Q 18.84375 -1.421875 12.171875 6.21875 
Q 5.515625 13.875 5.515625 27.296875 
Q 5.515625 40.765625 12.171875 48.375 
Q 18.84375 56 30.609375 56 
z
" id="DejaVuSans-111"/>
       <path d="M 37.109375 75.984375 
L 37.109375 68.5 
L 28.515625 68.5 
Q 23.6875 68.5 21.796875 66.546875 
Q 19.921875 64.59375 19.921875 59.515625 
L 19.921875 54.6875 
L 34.71875 54.6875 
L 34.71875 47.703125 
L 19.921875 47.703125 
L 19.921875 0 
L 10.890625 0 
L 10.890625 47.703125 
L 2.296875 47.703125 
L 2.296875 54.6875 
L 10.890625 54.6875 
L 10.890625 58.5 
Q 10.890625 67.625 15.140625 71.796875 
Q 19.390625 75.984375 28.609375 75.984375 
z
" id="DejaVuSans-102"/>
       <path d="M 52 44.1875 
Q 55.375 50.25 60.0625 53.125 
Q 64.75 56 71.09375 56 
Q 79.640625 56 84.28125 50.015625 
Q 88.921875 44.046875 88.921875 33.015625 
L 88.921875 0 
L 79.890625 0 
L 79.890625 32.71875 
Q 79.890625 40.578125 77.09375 44.375 
Q 74.3125 48.1875 68.609375 48.1875 
Q 61.625 48.1875 57.5625 43.546875 
Q 53.515625 38.921875 53.515625 30.90625 
L 53.515625 0 
L 44.484375 0 
L 44.484375 32.71875 
Q 44.484375 40.625 41.703125 44.40625 
Q 38.921875 48.1875 33.109375 48.1875 
Q 26.21875 48.1875 22.15625 43.53125 
Q 18.109375 38.875 18.109375 30.90625 
L 18.109375 0 
L 9.078125 0 
L 9.078125 54.6875 
L 18.109375 54.6875 
L 18.109375 46.1875 
Q 21.1875 51.21875 25.484375 53.609375 
Q 29.78125 56 35.6875 56 
Q 41.65625 56 45.828125 52.96875 
Q 50 49.953125 52 44.1875 
z
" id="DejaVuSans-109"/>
       <path d="M 34.28125 27.484375 
Q 23.390625 27.484375 19.1875 25 
Q 14.984375 22.515625 14.984375 16.5 
Q 14.984375 11.71875 18.140625 8.90625 
Q 21.296875 6.109375 26.703125 6.109375 
Q 34.1875 6.109375 38.703125 11.40625 
Q 43.21875 16.703125 43.21875 25.484375 
L 43.21875 27.484375 
z
M 52.203125 31.203125 
L 52.203125 0 
L 43.21875 0 
L 43.21875 8.296875 
Q 40.140625 3.328125 35.546875 0.953125 
Q 30.953125 -1.421875 24.3125 -1.421875 
Q 15.921875 -1.421875 10.953125 3.296875 
Q 6 8.015625 6 15.921875 
Q 6 25.140625 12.171875 29.828125 
Q 18.359375 34.515625 30.609375 34.515625 
L 43.21875 34.515625 
L 43.21875 35.40625 
Q 43.21875 41.609375 39.140625 45 
Q 35.0625 48.390625 27.6875 48.390625 
Q 23 48.390625 18.546875 47.265625 
Q 14.109375 46.140625 10.015625 43.890625 
L 10.015625 52.203125 
Q 14.9375 54.109375 19.578125 55.046875 
Q 24.21875 56 28.609375 56 
Q 40.484375 56 46.34375 49.84375 
Q 52.203125 43.703125 52.203125 31.203125 
z
" id="DejaVuSans-97"/>
       <path d="M 44.28125 53.078125 
L 44.28125 44.578125 
Q 40.484375 46.53125 36.375 47.5 
Q 32.28125 48.484375 27.875 48.484375 
Q 21.1875 48.484375 17.84375 46.4375 
Q 14.5 44.390625 14.5 40.28125 
Q 14.5 37.15625 16.890625 35.375 
Q 19.28125 33.59375 26.515625 31.984375 
L 29.59375 31.296875 
Q 39.15625 29.25 43.1875 25.515625 
Q 47.21875 21.78125 47.21875 15.09375 
Q 47.21875 7.46875 41.1875 3.015625 
Q 35.15625 -1.421875 24.609375 -1.421875 
Q 20.21875 -1.421875 15.453125 -0.5625 
Q 10.6875 0.296875 5.421875 2 
L 5.421875 11.28125 
Q 10.40625 8.6875 15.234375 7.390625 
Q 20.0625 6.109375 24.8125 6.109375 
Q 31.15625 6.109375 34.5625 8.28125 
Q 37.984375 10.453125 37.984375 14.40625 
Q 37.984375 18.0625 35.515625 20.015625 
Q 33.0625 21.96875 24.703125 23.78125 
L 21.578125 24.515625 
Q 13.234375 26.265625 9.515625 29.90625 
Q 5.8125 33.546875 5.8125 39.890625 
Q 5.8125 47.609375 11.28125 51.796875 
Q 16.75 56 26.8125 56 
Q 31.78125 56 36.171875 55.265625 
Q 40.578125 54.546875 44.28125 53.078125 
z
" id="DejaVuSans-115"/>
      </defs>
      <use xlink:href="#DejaVuSans-99"/>
      <use x="54.980469" xlink:href="#DejaVuSans-101"/>
      <use x="116.503906" xlink:href="#DejaVuSans-110"/>
      <use x="179.882812" xlink:href="#DejaVuSans-116"/>
      <use x="219.091797" xlink:href="#DejaVuSans-101"/>
      <use x="280.615234" xlink:href="#DejaVuSans-114"/>
      <use x="321.728516" xlink:href="#DejaVuSans-32"/>
      <use x="353.515625" xlink:href="#DejaVuSans-111"/>
      <use x="414.697266" xlink:href="#DejaVuSans-102"/>
      <use x="449.902344" xlink:href="#DejaVuSans-32"/>
      <use x="481.689453" xlink:href="#DejaVuSans-109"/>
      <use x="579.101562" xlink:href="#DejaVuSans-97"/>
      <use x="640.380859" xlink:href="#DejaVuSans-115"/>
      <use x="692.480469" xlink:href="#DejaVuSans-115"/>
     </g>
    </g>
    <g id="PathCollection_2">
     <g>
      <use style="fill:#ff7f0e;stroke:#ff7f0e;" x="59.603125" xlink:href="#m643c2044da" y="35.851562"/>
     </g>
    </g>
    <g id="text_20">
     <!-- write times -->
     <g transform="translate(77.603125 38.476562)scale(0.1 -0.1)">
      <defs>
       <path d="M 4.203125 54.6875 
L 13.1875 54.6875 
L 24.421875 12.015625 
L 35.59375 54.6875 
L 46.1875 54.6875 
L 57.421875 12.015625 
L 68.609375 54.6875 
L 77.59375 54.6875 
L 63.28125 0 
L 52.6875 0 
L 40.921875 44.828125 
L 29.109375 0 
L 18.5 0 
z
" id="DejaVuSans-119"/>
       <path d="M 9.421875 54.6875 
L 18.40625 54.6875 
L 18.40625 0 
L 9.421875 0 
z
M 9.421875 75.984375 
L 18.40625 75.984375 
L 18.40625 64.59375 
L 9.421875 64.59375 
z
" id="DejaVuSans-105"/>
      </defs>
      <use xlink:href="#DejaVuSans-119"/>
      <use x="81.787109" xlink:href="#DejaVuSans-114"/>
      <use x="122.900391" xlink:href="#DejaVuSans-105"/>
      <use x="150.683594" xlink:href="#DejaVuSans-116"/>
      <use x="189.892578" xlink:href="#DejaVuSans-101"/>
      <use x="251.416016" xlink:href="#DejaVuSans-32"/>
      <use x="283.203125" xlink:href="#DejaVuSans-116"/>
      <use x="322.412109" xlink:href="#DejaVuSans-105"/>
      <use x="350.195312" xlink:href="#DejaVuSans-109"/>
      <use x="447.607422" xlink:href="#DejaVuSans-101"/>
      <use x="509.130859" xlink:href="#DejaVuSans-115"/>
     </g>
    </g>
   </g>
  </g>
 </g>
 <defs>
  <clipPath id="p1575035d74">
   <rect height="217.44" width="334.8" x="40.603125" y="7.2"/>
  </clipPath>
 </defs>
</svg>
