<?xml version="1.0" encoding="utf-8" standalone="no"?>
<!DOCTYPE svg PUBLIC "-//W3C//DTD SVG 1.1//EN"
  "http://www.w3.org/Graphics/SVG/1.1/DTD/svg11.dtd">
<!-- Created with matplotlib (https://matplotlib.org/) -->
<svg height="262.19625pt" version="1.1" viewBox="0 0 385.78125 262.19625" width="385.78125pt" xmlns="http://www.w3.org/2000/svg" xmlns:xlink="http://www.w3.org/1999/xlink">
 <metadata>
  <rdf:RDF xmlns:cc="http://creativecommons.org/ns#" xmlns:dc="http://purl.org/dc/elements/1.1/" xmlns:rdf="http://www.w3.org/1999/02/22-rdf-syntax-ns#">
   <cc:Work>
    <dc:type rdf:resource="http://purl.org/dc/dcmitype/StillImage"/>
    <dc:date>2021-12-05T18:21:12.316100</dc:date>
    <dc:format>image/svg+xml</dc:format>
    <dc:creator>
     <cc:Agent>
      <dc:title>Matplotlib v3.3.3, https://matplotlib.org/</dc:title>
     </cc:Agent>
    </dc:creator>
   </cc:Work>
  </rdf:RDF>
 </metadata>
 <defs>
  <style type="text/css">*{stroke-linecap:butt;stroke-linejoin:round;}</style>
 </defs>
 <g id="figure_1">
  <g id="patch_1">
   <path d="M 0 262.19625 
L 385.78125 262.19625 
L 385.78125 0 
L 0 0 
z
" style="fill:none;"/>
  </g>
  <g id="axes_1">
   <g id="patch_2">
    <path d="M 43.78125 224.64 
L 378.58125 224.64 
L 378.58125 7.2 
L 43.78125 7.2 
z
" style="fill:#ffffff;"/>
   </g>
   <g id="matplotlib.axis_1">
    <g id="xtick_1">
     <g id="line2d_1">
      <defs>
       <path d="M 0 0 
L 0 3.5 
" id="m62ac7a1750" style="stroke:#000000;stroke-width:0.8;"/>
      </defs>
      <g>
       <use style="stroke:#000000;stroke-width:0.8;" x="58.999432" xlink:href="#m62ac7a1750" y="224.64"/>
      </g>
     </g>
     <g id="text_1">
      <!-- 0 -->
      <g transform="translate(55.818182 239.238438)scale(0.1 -0.1)">
       <defs>
        <path d="M 31.78125 66.40625 
Q 24.171875 66.40625 20.328125 58.90625 
Q 16.5 51.421875 16.5 36.375 
Q 16.5 21.390625 20.328125 13.890625 
Q 24.171875 6.390625 31.78125 6.390625 
Q 39.453125 6.390625 43.28125 13.890625 
Q 47.125 21.390625 47.125 36.375 
Q 47.125 51.421875 43.28125 58.90625 
Q 39.453125 66.40625 31.78125 66.40625 
z
M 31.78125 74.21875 
Q 44.046875 74.21875 50.515625 64.515625 
Q 56.984375 54.828125 56.984375 36.375 
Q 56.984375 17.96875 50.515625 8.265625 
Q 44.046875 -1.421875 31.78125 -1.421875 
Q 19.53125 -1.421875 13.0625 8.265625 
Q 6.59375 17.96875 6.59375 36.375 
Q 6.59375 54.828125 13.0625 64.515625 
Q 19.53125 74.21875 31.78125 74.21875 
z
" id="DejaVuSans-48"/>
       </defs>
       <use xlink:href="#DejaVuSans-48"/>
      </g>
     </g>
    </g>
    <g id="xtick_2">
     <g id="line2d_2">
      <g>
       <use style="stroke:#000000;stroke-width:0.8;" x="99.991166" xlink:href="#m62ac7a1750" y="224.64"/>
      </g>
     </g>
     <g id="text_2">
      <!-- 2 -->
      <g transform="translate(96.809916 239.238438)scale(0.1 -0.1)">
       <defs>
        <path d="M 19.1875 8.296875 
L 53.609375 8.296875 
L 53.609375 0 
L 7.328125 0 
L 7.328125 8.296875 
Q 12.9375 14.109375 22.625 23.890625 
Q 32.328125 33.6875 34.8125 36.53125 
Q 39.546875 41.84375 41.421875 45.53125 
Q 43.3125 49.21875 43.3125 52.78125 
Q 43.3125 58.59375 39.234375 62.25 
Q 35.15625 65.921875 28.609375 65.921875 
Q 23.96875 65.921875 18.8125 64.3125 
Q 13.671875 62.703125 7.8125 59.421875 
L 7.8125 69.390625 
Q 13.765625 71.78125 18.9375 73 
Q 24.125 74.21875 28.421875 74.21875 
Q 39.75 74.21875 46.484375 68.546875 
Q 53.21875 62.890625 53.21875 53.421875 
Q 53.21875 48.921875 51.53125 44.890625 
Q 49.859375 40.875 45.40625 35.40625 
Q 44.1875 33.984375 37.640625 27.21875 
Q 31.109375 20.453125 19.1875 8.296875 
z
" id="DejaVuSans-50"/>
       </defs>
       <use xlink:href="#DejaVuSans-50"/>
      </g>
     </g>
    </g>
    <g id="xtick_3">
     <g id="line2d_3">
      <g>
       <use style="stroke:#000000;stroke-width:0.8;" x="140.982901" xlink:href="#m62ac7a1750" y="224.64"/>
      </g>
     </g>
     <g id="text_3">
      <!-- 4 -->
      <g transform="translate(137.801651 239.238438)scale(0.1 -0.1)">
       <defs>
        <path d="M 37.796875 64.3125 
L 12.890625 25.390625 
L 37.796875 25.390625 
z
M 35.203125 72.90625 
L 47.609375 72.90625 
L 47.609375 25.390625 
L 58.015625 25.390625 
L 58.015625 17.1875 
L 47.609375 17.1875 
L 47.609375 0 
L 37.796875 0 
L 37.796875 17.1875 
L 4.890625 17.1875 
L 4.890625 26.703125 
z
" id="DejaVuSans-52"/>
       </defs>
       <use xlink:href="#DejaVuSans-52"/>
      </g>
     </g>
    </g>
    <g id="xtick_4">
     <g id="line2d_4">
      <g>
       <use style="stroke:#000000;stroke-width:0.8;" x="181.974635" xlink:href="#m62ac7a1750" y="224.64"/>
      </g>
     </g>
     <g id="text_4">
      <!-- 6 -->
      <g transform="translate(178.793385 239.238438)scale(0.1 -0.1)">
       <defs>
        <path d="M 33.015625 40.375 
Q 26.375 40.375 22.484375 35.828125 
Q 18.609375 31.296875 18.609375 23.390625 
Q 18.609375 15.53125 22.484375 10.953125 
Q 26.375 6.390625 33.015625 6.390625 
Q 39.65625 6.390625 43.53125 10.953125 
Q 47.40625 15.53125 47.40625 23.390625 
Q 47.40625 31.296875 43.53125 35.828125 
Q 39.65625 40.375 33.015625 40.375 
z
M 52.59375 71.296875 
L 52.59375 62.3125 
Q 48.875 64.0625 45.09375 64.984375 
Q 41.3125 65.921875 37.59375 65.921875 
Q 27.828125 65.921875 22.671875 59.328125 
Q 17.53125 52.734375 16.796875 39.40625 
Q 19.671875 43.65625 24.015625 45.921875 
Q 28.375 48.1875 33.59375 48.1875 
Q 44.578125 48.1875 50.953125 41.515625 
Q 57.328125 34.859375 57.328125 23.390625 
Q 57.328125 12.15625 50.6875 5.359375 
Q 44.046875 -1.421875 33.015625 -1.421875 
Q 20.359375 -1.421875 13.671875 8.265625 
Q 6.984375 17.96875 6.984375 36.375 
Q 6.984375 53.65625 15.1875 63.9375 
Q 23.390625 74.21875 37.203125 74.21875 
Q 40.921875 74.21875 44.703125 73.484375 
Q 48.484375 72.75 52.59375 71.296875 
z
" id="DejaVuSans-54"/>
       </defs>
       <use xlink:href="#DejaVuSans-54"/>
      </g>
     </g>
    </g>
    <g id="xtick_5">
     <g id="line2d_5">
      <g>
       <use style="stroke:#000000;stroke-width:0.8;" x="222.96637" xlink:href="#m62ac7a1750" y="224.64"/>
      </g>
     </g>
     <g id="text_5">
      <!-- 8 -->
      <g transform="translate(219.78512 239.238438)scale(0.1 -0.1)">
       <defs>
        <path d="M 31.78125 34.625 
Q 24.75 34.625 20.71875 30.859375 
Q 16.703125 27.09375 16.703125 20.515625 
Q 16.703125 13.921875 20.71875 10.15625 
Q 24.75 6.390625 31.78125 6.390625 
Q 38.8125 6.390625 42.859375 10.171875 
Q 46.921875 13.96875 46.921875 20.515625 
Q 46.921875 27.09375 42.890625 30.859375 
Q 38.875 34.625 31.78125 34.625 
z
M 21.921875 38.8125 
Q 15.578125 40.375 12.03125 44.71875 
Q 8.5 49.078125 8.5 55.328125 
Q 8.5 64.0625 14.71875 69.140625 
Q 20.953125 74.21875 31.78125 74.21875 
Q 42.671875 74.21875 48.875 69.140625 
Q 55.078125 64.0625 55.078125 55.328125 
Q 55.078125 49.078125 51.53125 44.71875 
Q 48 40.375 41.703125 38.8125 
Q 48.828125 37.15625 52.796875 32.3125 
Q 56.78125 27.484375 56.78125 20.515625 
Q 56.78125 9.90625 50.3125 4.234375 
Q 43.84375 -1.421875 31.78125 -1.421875 
Q 19.734375 -1.421875 13.25 4.234375 
Q 6.78125 9.90625 6.78125 20.515625 
Q 6.78125 27.484375 10.78125 32.3125 
Q 14.796875 37.15625 21.921875 38.8125 
z
M 18.3125 54.390625 
Q 18.3125 48.734375 21.84375 45.5625 
Q 25.390625 42.390625 31.78125 42.390625 
Q 38.140625 42.390625 41.71875 45.5625 
Q 45.3125 48.734375 45.3125 54.390625 
Q 45.3125 60.0625 41.71875 63.234375 
Q 38.140625 66.40625 31.78125 66.40625 
Q 25.390625 66.40625 21.84375 63.234375 
Q 18.3125 60.0625 18.3125 54.390625 
z
" id="DejaVuSans-56"/>
       </defs>
       <use xlink:href="#DejaVuSans-56"/>
      </g>
     </g>
    </g>
    <g id="xtick_6">
     <g id="line2d_6">
      <g>
       <use style="stroke:#000000;stroke-width:0.8;" x="263.958104" xlink:href="#m62ac7a1750" y="224.64"/>
      </g>
     </g>
     <g id="text_6">
      <!-- 10 -->
      <g transform="translate(257.595604 239.238438)scale(0.1 -0.1)">
       <defs>
        <path d="M 12.40625 8.296875 
L 28.515625 8.296875 
L 28.515625 63.921875 
L 10.984375 60.40625 
L 10.984375 69.390625 
L 28.421875 72.90625 
L 38.28125 72.90625 
L 38.28125 8.296875 
L 54.390625 8.296875 
L 54.390625 0 
L 12.40625 0 
z
" id="DejaVuSans-49"/>
       </defs>
       <use xlink:href="#DejaVuSans-49"/>
       <use x="63.623047" xlink:href="#DejaVuSans-48"/>
      </g>
     </g>
    </g>
    <g id="xtick_7">
     <g id="line2d_7">
      <g>
       <use style="stroke:#000000;stroke-width:0.8;" x="304.949839" xlink:href="#m62ac7a1750" y="224.64"/>
      </g>
     </g>
     <g id="text_7">
      <!-- 12 -->
      <g transform="translate(298.587339 239.238438)scale(0.1 -0.1)">
       <use xlink:href="#DejaVuSans-49"/>
       <use x="63.623047" xlink:href="#DejaVuSans-50"/>
      </g>
     </g>
    </g>
    <g id="xtick_8">
     <g id="line2d_8">
      <g>
       <use style="stroke:#000000;stroke-width:0.8;" x="345.941573" xlink:href="#m62ac7a1750" y="224.64"/>
      </g>
     </g>
     <g id="text_8">
      <!-- 14 -->
      <g transform="translate(339.579073 239.238438)scale(0.1 -0.1)">
       <use xlink:href="#DejaVuSans-49"/>
       <use x="63.623047" xlink:href="#DejaVuSans-52"/>
      </g>
     </g>
    </g>
    <g id="text_9">
     <!-- $t$ -->
     <g transform="translate(209.18125 252.916563)scale(0.1 -0.1)">
      <defs>
       <path d="M 42.28125 54.6875 
L 40.921875 47.703125 
L 23 47.703125 
L 17.1875 18.015625 
Q 16.890625 16.359375 16.75 15.234375 
Q 16.609375 14.109375 16.609375 13.484375 
Q 16.609375 10.359375 18.484375 8.9375 
Q 20.359375 7.515625 24.515625 7.515625 
L 33.59375 7.515625 
L 32.078125 0 
L 23.484375 0 
Q 15.484375 0 11.546875 3.125 
Q 7.625 6.25 7.625 12.59375 
Q 7.625 13.71875 7.765625 15.0625 
Q 7.90625 16.40625 8.203125 18.015625 
L 14.015625 47.703125 
L 6.390625 47.703125 
L 7.8125 54.6875 
L 15.28125 54.6875 
L 18.3125 70.21875 
L 27.296875 70.21875 
L 24.3125 54.6875 
z
" id="DejaVuSans-Oblique-116"/>
      </defs>
      <use transform="translate(0 0.78125)" xlink:href="#DejaVuSans-Oblique-116"/>
     </g>
    </g>
   </g>
   <g id="matplotlib.axis_2">
    <g id="ytick_1">
     <g id="line2d_9">
      <defs>
       <path d="M 0 0 
L -3.5 0 
" id="m5041657bc8" style="stroke:#000000;stroke-width:0.8;"/>
      </defs>
      <g>
       <use style="stroke:#000000;stroke-width:0.8;" x="43.78125" xlink:href="#m5041657bc8" y="214.756364"/>
      </g>
     </g>
     <g id="text_10">
      <!-- 0.0 -->
      <g transform="translate(20.878125 218.555582)scale(0.1 -0.1)">
       <defs>
        <path d="M 10.6875 12.40625 
L 21 12.40625 
L 21 0 
L 10.6875 0 
z
" id="DejaVuSans-46"/>
       </defs>
       <use xlink:href="#DejaVuSans-48"/>
       <use x="63.623047" xlink:href="#DejaVuSans-46"/>
       <use x="95.410156" xlink:href="#DejaVuSans-48"/>
      </g>
     </g>
    </g>
    <g id="ytick_2">
     <g id="line2d_10">
      <g>
       <use style="stroke:#000000;stroke-width:0.8;" x="43.78125" xlink:href="#m5041657bc8" y="179.23264"/>
      </g>
     </g>
     <g id="text_11">
      <!-- 0.5 -->
      <g transform="translate(20.878125 183.031859)scale(0.1 -0.1)">
       <defs>
        <path d="M 10.796875 72.90625 
L 49.515625 72.90625 
L 49.515625 64.59375 
L 19.828125 64.59375 
L 19.828125 46.734375 
Q 21.96875 47.46875 24.109375 47.828125 
Q 26.265625 48.1875 28.421875 48.1875 
Q 40.625 48.1875 47.75 41.5 
Q 54.890625 34.8125 54.890625 23.390625 
Q 54.890625 11.625 47.5625 5.09375 
Q 40.234375 -1.421875 26.90625 -1.421875 
Q 22.3125 -1.421875 17.546875 -0.640625 
Q 12.796875 0.140625 7.71875 1.703125 
L 7.71875 11.625 
Q 12.109375 9.234375 16.796875 8.0625 
Q 21.484375 6.890625 26.703125 6.890625 
Q 35.15625 6.890625 40.078125 11.328125 
Q 45.015625 15.765625 45.015625 23.390625 
Q 45.015625 31 40.078125 35.4375 
Q 35.15625 39.890625 26.703125 39.890625 
Q 22.75 39.890625 18.8125 39.015625 
Q 14.890625 38.140625 10.796875 36.28125 
z
" id="DejaVuSans-53"/>
       </defs>
       <use xlink:href="#DejaVuSans-48"/>
       <use x="63.623047" xlink:href="#DejaVuSans-46"/>
       <use x="95.410156" xlink:href="#DejaVuSans-53"/>
      </g>
     </g>
    </g>
    <g id="ytick_3">
     <g id="line2d_11">
      <g>
       <use style="stroke:#000000;stroke-width:0.8;" x="43.78125" xlink:href="#m5041657bc8" y="143.708916"/>
      </g>
     </g>
     <g id="text_12">
      <!-- 1.0 -->
      <g transform="translate(20.878125 147.508135)scale(0.1 -0.1)">
       <use xlink:href="#DejaVuSans-49"/>
       <use x="63.623047" xlink:href="#DejaVuSans-46"/>
       <use x="95.410156" xlink:href="#DejaVuSans-48"/>
      </g>
     </g>
    </g>
    <g id="ytick_4">
     <g id="line2d_12">
      <g>
       <use style="stroke:#000000;stroke-width:0.8;" x="43.78125" xlink:href="#m5041657bc8" y="108.185192"/>
      </g>
     </g>
     <g id="text_13">
      <!-- 1.5 -->
      <g transform="translate(20.878125 111.984411)scale(0.1 -0.1)">
       <use xlink:href="#DejaVuSans-49"/>
       <use x="63.623047" xlink:href="#DejaVuSans-46"/>
       <use x="95.410156" xlink:href="#DejaVuSans-53"/>
      </g>
     </g>
    </g>
    <g id="ytick_5">
     <g id="line2d_13">
      <g>
       <use style="stroke:#000000;stroke-width:0.8;" x="43.78125" xlink:href="#m5041657bc8" y="72.661468"/>
      </g>
     </g>
     <g id="text_14">
      <!-- 2.0 -->
      <g transform="translate(20.878125 76.460687)scale(0.1 -0.1)">
       <use xlink:href="#DejaVuSans-50"/>
       <use x="63.623047" xlink:href="#DejaVuSans-46"/>
       <use x="95.410156" xlink:href="#DejaVuSans-48"/>
      </g>
     </g>
    </g>
    <g id="ytick_6">
     <g id="line2d_14">
      <g>
       <use style="stroke:#000000;stroke-width:0.8;" x="43.78125" xlink:href="#m5041657bc8" y="37.137745"/>
      </g>
     </g>
     <g id="text_15">
      <!-- 2.5 -->
      <g transform="translate(20.878125 40.936963)scale(0.1 -0.1)">
       <use xlink:href="#DejaVuSans-50"/>
       <use x="63.623047" xlink:href="#DejaVuSans-46"/>
       <use x="95.410156" xlink:href="#DejaVuSans-53"/>
      </g>
     </g>
    </g>
    <g id="text_16">
     <!-- $U_b$ -->
     <g transform="translate(14.798438 121.97)rotate(-90)scale(0.1 -0.1)">
      <defs>
       <path d="M 15.484375 72.90625 
L 25.390625 72.90625 
L 16.796875 28.609375 
Q 16.265625 25.640625 16.046875 23.703125 
Q 15.828125 21.78125 15.828125 20.3125 
Q 15.828125 13.578125 19.578125 10.078125 
Q 23.34375 6.59375 30.609375 6.59375 
Q 40.046875 6.59375 45.28125 11.765625 
Q 50.53125 16.9375 52.78125 28.609375 
L 61.375 72.90625 
L 71.296875 72.90625 
L 62.5 27.390625 
Q 59.625 12.640625 51.5625 5.609375 
Q 43.5 -1.421875 29.5 -1.421875 
Q 18.5625 -1.421875 12.1875 4.078125 
Q 5.8125 9.578125 5.8125 19 
Q 5.8125 20.703125 6.046875 22.828125 
Q 6.296875 24.953125 6.78125 27.390625 
z
" id="DejaVuSans-Oblique-85"/>
       <path d="M 49.515625 33.40625 
Q 49.515625 40.484375 46.265625 44.484375 
Q 43.015625 48.484375 37.3125 48.484375 
Q 33.15625 48.484375 29.515625 46.453125 
Q 25.875 44.4375 23.1875 40.578125 
Q 20.359375 36.53125 18.71875 31.171875 
Q 17.09375 25.828125 17.09375 20.515625 
Q 17.09375 13.765625 20.28125 9.9375 
Q 23.484375 6.109375 29.109375 6.109375 
Q 33.34375 6.109375 36.953125 8.078125 
Q 40.578125 10.0625 43.3125 13.921875 
Q 46.09375 17.921875 47.796875 23.234375 
Q 49.515625 28.5625 49.515625 33.40625 
z
M 21.578125 46.390625 
Q 24.90625 50.875 29.90625 53.4375 
Q 34.90625 56 40.375 56 
Q 48.78125 56 53.734375 50.328125 
Q 58.6875 44.671875 58.6875 35.015625 
Q 58.6875 27.09375 55.78125 19.671875 
Q 52.875 12.25 47.515625 6.5 
Q 44 2.6875 39.40625 0.625 
Q 34.8125 -1.421875 29.78125 -1.421875 
Q 24.46875 -1.421875 20.5625 1.015625 
Q 16.65625 3.46875 14.203125 8.296875 
L 12.59375 0 
L 3.609375 0 
L 18.40625 75.984375 
L 27.390625 75.984375 
z
" id="DejaVuSans-Oblique-98"/>
      </defs>
      <use transform="translate(0 0.09375)" xlink:href="#DejaVuSans-Oblique-85"/>
      <use transform="translate(73.193359 -16.3125)scale(0.7)" xlink:href="#DejaVuSans-Oblique-98"/>
     </g>
    </g>
   </g>
   <g id="line2d_15">
    <path clip-path="url(#pbe7b20e560)" d="M 58.999432 214.756364 
L 59.352018 212.345051 
L 59.995228 207.801266 
L 64.735114 177.166839 
L 64.87055 176.407223 
L 68.899748 153.614051 
L 69.13676 152.359373 
L 69.881654 148.281862 
L 69.915513 148.316126 
L 70.254101 146.509404 
L 70.897418 143.315189 
L 72.184053 137.255484 
L 72.522641 135.743543 
L 72.861229 134.271525 
L 73.436829 131.673305 
L 73.504547 131.494686 
L 74.486452 127.335694 
L 74.520311 127.356466 
L 74.791181 126.148343 
L 77.296734 115.993375 
L 77.330592 116.375124 
L 77.364451 115.782202 
L 77.39831 115.824809 
L 77.66918 114.665891 
L 78.888098 110.20054 
L 79.158968 109.176224 
L 79.226686 109.000787 
L 79.599133 107.806632 
L 83.729908 95.454464 
L 83.797625 95.256086 
L 84.373225 93.802607 
L 84.576378 93.122274 
L 84.81339 92.492085 
L 85.151978 91.560324 
L 85.219695 91.396933 
L 86.032307 89.179666 
L 86.100025 89.100123 
L 86.303177 88.410874 
L 86.370895 88.311486 
L 86.574048 87.779593 
L 88.504 83.112291 
L 88.537859 83.126721 
L 88.571718 83.028382 
L 88.842588 82.334681 
L 89.316612 81.334254 
L 89.485906 80.974701 
L 89.519765 80.975149 
L 89.92607 79.931279 
L 89.959929 79.951538 
L 89.993788 79.73069 
L 90.095364 79.747203 
L 93.718257 72.706686 
L 93.752116 72.784751 
L 93.92141 72.19397 
L 93.989128 72.255822 
L 94.124563 71.84163 
L 94.158422 71.865316 
L 94.19228 71.912594 
L 94.226139 71.830398 
L 94.564727 71.026796 
L 94.632445 71.11759 
L 94.666304 71.02503 
L 95.004892 70.347604 
L 95.885221 68.635585 
L 95.91908 68.669938 
L 95.986798 68.598087 
L 96.291527 67.798018 
L 96.359245 67.952829 
L 97.002562 66.848999 
L 97.036421 66.844913 
L 97.273432 66.393265 
L 97.645879 65.824457 
L 97.747456 65.764287 
L 98.18762 65.016718 
L 98.221479 65.042098 
L 98.255338 64.957343 
L 98.289197 64.802163 
L 98.323055 65.033259 
L 98.356914 64.841041 
L 98.390773 64.881433 
L 98.424632 64.786149 
L 98.627785 64.424501 
L 98.76322 64.294288 
L 99.406537 63.271105 
L 99.440396 63.295433 
L 99.474255 63.356317 
L 99.508114 63.210936 
L 99.575831 63.069179 
L 99.60969 63.350676 
L 99.677408 63.03753 
L 99.745126 62.592481 
L 99.91442 62.670064 
L 99.948278 62.777034 
L 100.049855 62.357323 
L 100.083714 62.371122 
L 100.388443 62.018904 
L 100.659314 61.532224 
L 101.708937 60.149193 
L 101.810513 60.012103 
L 101.844372 60.058726 
L 101.878231 60.049232 
L 102.047525 59.63231 
L 102.18296 59.733396 
L 102.318395 59.245398 
L 102.386113 59.246968 
L 102.419972 59.198897 
L 102.623125 58.842651 
L 102.656983 58.992995 
L 102.690842 58.962507 
L 102.860136 58.492157 
L 102.995571 58.484738 
L 103.131007 58.241421 
L 104.045195 57.149382 
L 104.079053 57.13917 
L 104.18063 56.855715 
L 104.214489 56.919513 
L 104.248348 57.023281 
L 104.282206 56.850434 
L 104.417642 56.677756 
L 104.451501 56.737951 
L 104.485359 56.617323 
L 106.347594 54.399956 
L 106.381453 54.45434 
L 106.415311 54.365942 
L 106.584606 54.14655 
L 106.618464 54.225504 
L 106.720041 54.048975 
L 106.889335 53.896223 
L 106.923194 53.967074 
L 106.957052 53.836671 
L 107.02477 53.90297 
L 107.126346 53.603164 
L 107.160205 53.67506 
L 107.227923 53.569144 
L 107.261782 53.609901 
L 107.295641 53.514801 
L 108.142111 52.63696 
L 108.345264 52.379249 
L 108.379123 52.500785 
L 108.412981 52.284457 
L 108.480699 52.38827 
L 108.514558 52.419515 
L 108.616134 51.865108 
L 108.683852 52.029925 
L 108.717711 52.13242 
L 108.785428 52.064234 
L 108.988581 51.822121 
L 109.090158 51.722782 
L 109.293311 51.573201 
L 109.462605 51.213215 
L 109.496463 51.389367 
L 109.59804 51.34182 
L 109.902769 51.002985 
L 109.936628 50.993282 
L 110.072063 50.797001 
L 110.17364 50.699769 
L 110.342934 50.584344 
L 110.376792 50.360891 
L 110.44451 50.463503 
L 110.546086 50.396856 
L 110.647663 50.216123 
L 110.715381 50.284575 
L 110.749239 50.181484 
L 110.816957 50.106592 
L 110.850816 50.242906 
L 110.884675 50.08787 
L 110.918533 49.986707 
L 110.952392 50.050814 
L 110.986251 50.140708 
L 111.02011 50.003463 
L 111.189404 49.838133 
L 111.527992 49.494093 
L 111.663427 49.467989 
L 111.832721 49.286288 
L 112.103592 49.009783 
L 112.272886 48.893753 
L 112.543756 48.538602 
L 112.577615 48.730671 
L 112.645333 48.504945 
L 112.679192 48.531009 
L 112.713051 48.443293 
L 112.814627 48.145817 
L 112.780768 48.546257 
L 112.848486 48.255052 
L 112.882345 48.302715 
L 112.916203 48.193503 
L 113.322509 47.81368 
L 113.559521 47.584342 
L 113.59338 47.473249 
L 113.661097 47.620795 
L 113.728815 47.704312 
L 113.86425 47.412097 
L 113.965826 47.432013 
L 114.033544 47.046021 
L 114.135121 47.198628 
L 114.168979 47.251306 
L 114.202838 47.170279 
L 114.372132 46.971039 
L 114.405991 47.002539 
L 114.575285 46.89115 
L 114.71072 46.640259 
L 114.676861 46.926265 
L 114.744579 46.668493 
L 114.778438 46.807704 
L 114.846156 46.685572 
L 114.880014 46.461499 
L 114.981591 46.490839 
L 115.083167 46.439868 
L 115.117026 46.562261 
L 115.150885 46.424964 
L 115.320179 46.146065 
L 115.387896 46.205017 
L 115.421755 46.138025 
L 115.523332 46.099942 
L 115.726485 45.930835 
L 115.86192 45.838342 
L 116.098931 45.571028 
L 116.200508 45.62583 
L 116.369802 45.436943 
L 116.43752 45.453339 
L 116.471379 45.408796 
L 116.979261 45.117395 
L 117.080837 44.941421 
L 117.114696 44.962165 
L 117.148555 45.098483 
L 117.216272 44.944051 
L 117.351708 44.799248 
L 117.28399 44.986981 
L 117.385566 44.84017 
L 117.487143 44.784397 
L 118.299754 44.189716 
L 118.333613 44.301867 
L 118.401331 44.192979 
L 118.536766 44.033417 
L 118.570625 44.151218 
L 118.773778 43.957985 
L 118.943072 43.779931 
L 119.044648 43.860411 
L 119.180083 43.663758 
L 120.737589 42.446381 
L 120.771448 42.51371 
L 120.805306 42.390785 
L 120.839165 42.4431 
L 120.873024 42.219083 
L 120.974601 42.241344 
L 121.008459 42.317386 
L 121.042318 42.14353 
L 121.076177 42.204626 
L 121.245471 42.096683 
L 121.414765 42.112449 
L 121.617918 41.662941 
L 121.753353 41.841971 
L 121.888788 41.553059 
L 121.990365 41.640118 
L 122.024224 41.580507 
L 122.058082 41.575297 
L 122.091941 41.376014 
L 122.159659 41.520341 
L 122.295094 41.495953 
L 122.464388 41.287566 
L 122.565965 41.228902 
L 122.633682 41.065948 
L 122.667541 41.190455 
L 122.7014 41.211259 
L 122.735259 41.148588 
L 122.904553 40.778057 
L 123.039988 40.909666 
L 123.141564 41.02517 
L 123.175423 40.854909 
L 123.412435 40.769399 
L 123.581729 40.490268 
L 123.683305 40.640377 
L 123.717164 40.617575 
L 123.852599 40.485905 
L 123.920317 40.567987 
L 123.954176 40.480055 
L 124.055752 40.340777 
L 124.12347 40.390842 
L 124.495917 40.201987 
L 124.665211 40.070203 
L 125.003799 39.829107 
L 125.037658 39.924636 
L 125.071517 39.792163 
L 125.139234 39.759913 
L 125.173093 39.87186 
L 125.206952 39.705304 
L 125.240811 39.725562 
L 125.443964 39.629869 
L 125.477822 39.467276 
L 125.579399 39.518501 
L 125.647116 39.612293 
L 125.680975 39.47296 
L 125.884128 39.429838 
L 125.917987 39.44482 
L 126.053422 39.269523 
L 126.222716 39.278549 
L 126.39201 39.111954 
L 126.459728 39.144294 
L 126.493587 39.015872 
L 126.561304 39.068674 
L 126.69674 39.033929 
L 127.035328 38.728346 
L 127.170763 38.821076 
L 127.509351 38.571575 
L 127.54321 38.630878 
L 127.577069 38.672321 
L 127.644786 38.606066 
L 128.084951 38.392496 
L 128.220386 38.321073 
L 128.38968 38.219112 
L 128.558974 38.026749 
L 128.728268 37.979138 
L 128.762127 38.041526 
L 128.795986 37.742106 
L 128.863704 37.931256 
L 129.371586 37.733557 
L 129.405445 37.515824 
L 129.473162 37.556048 
L 129.507021 37.622638 
L 129.574739 37.530901 
L 129.710174 37.475123 
L 129.744033 37.517506 
L 129.777891 37.427086 
L 129.947186 37.284295 
L 129.981044 37.360978 
L 130.014903 37.238206 
L 130.048762 37.267174 
L 130.184197 37.229781 
L 130.38735 36.995994 
L 130.421209 37.092907 
L 130.488926 37.046335 
L 130.590503 37.111009 
L 130.624362 37.227661 
L 130.692079 36.82898 
L 130.759797 36.976564 
L 130.861373 36.695395 
L 130.895232 36.784321 
L 130.929091 36.894257 
L 130.996809 36.783096 
L 131.064526 36.792437 
L 131.098385 36.724658 
L 131.267679 36.651498 
L 131.301538 36.681195 
L 131.335397 36.62746 
L 131.504691 36.519279 
L 131.606267 36.481333 
L 131.640126 36.543236 
L 131.673985 36.61884 
L 131.707844 36.445862 
L 131.843279 36.387786 
L 131.910996 36.401108 
L 132.046432 36.305891 
L 132.114149 36.333214 
L 132.148008 36.27095 
L 132.418879 36.109891 
L 132.520455 35.941451 
L 132.554314 36.066901 
L 132.622032 36.013422 
L 132.689749 35.929152 
L 132.723608 35.816509 
L 132.791326 35.956638 
L 132.892902 35.915866 
L 133.062196 35.836582 
L 133.096055 35.877308 
L 133.129914 35.757394 
L 133.942525 35.35653 
L 134.111819 35.32901 
L 134.314972 35.258213 
L 134.348831 35.333486 
L 134.416549 35.268191 
L 134.484266 35.214276 
L 134.518125 35.061321 
L 134.585843 35.156896 
L 134.755137 35.077021 
L 134.890572 35.038698 
L 135.026007 35.039647 
L 135.195301 34.899846 
L 135.263019 34.936848 
L 135.296878 34.865706 
L 135.432313 34.845514 
L 135.466172 34.888945 
L 135.500031 34.852496 
L 135.601607 34.603631 
L 135.635466 34.765956 
L 136.515795 34.486962 
L 136.549654 34.214388 
L 136.617371 34.360349 
L 136.955959 34.197563 
L 137.091395 34.100269 
L 137.159112 34.203355 
L 137.192971 34.110112 
L 137.463842 34.022433 
L 137.497701 33.870415 
L 137.565418 34.017263 
L 137.633136 33.979491 
L 137.666995 34.108327 
L 137.734712 33.985976 
L 137.971724 33.818115 
L 138.005583 33.901288 
L 138.0733 33.852403 
L 138.107159 34.01117 
L 138.208736 33.851034 
L 138.242594 33.865095 
L 138.276453 33.903263 
L 138.310312 33.855087 
L 138.445747 33.595455 
L 138.479606 33.717231 
L 138.615041 33.697252 
L 138.750477 33.677393 
L 138.852053 33.637652 
L 138.953629 33.539275 
L 138.987488 33.57324 
L 139.122923 33.593491 
L 139.326076 33.523716 
L 139.359935 33.328052 
L 139.427653 33.461698 
L 139.461512 33.537017 
L 139.529229 33.460795 
L 140.409558 33.084181 
L 140.511135 32.78229 
L 140.612711 32.992804 
L 140.64657 32.959694 
L 140.748146 32.842905 
L 140.849723 32.719196 
L 140.883582 32.795784 
L 140.91744 32.838961 
L 140.951299 32.738686 
L 141.256029 32.446892 
L 141.323746 32.604518 
L 141.459181 32.571011 
L 141.594617 32.467166 
L 141.628476 32.571929 
L 141.696193 32.490851 
L 141.831628 32.380972 
L 141.865487 32.525457 
L 141.899346 32.358132 
L 141.933205 32.35415 
L 142.000922 32.488759 
L 142.034781 32.400771 
L 142.237934 32.227025 
L 143.016687 32.031918 
L 143.118263 31.843437 
L 143.185981 31.965353 
L 143.355275 31.950471 
L 143.389134 31.962136 
L 143.524569 31.834133 
L 143.660004 31.741473 
L 143.693863 31.818312 
L 143.727722 31.84835 
L 143.761581 31.69708 
L 143.829298 31.748912 
L 143.863157 31.806856 
L 143.897016 31.746618 
L 143.930875 31.614951 
L 144.032451 31.652815 
L 144.100169 31.730933 
L 144.167886 31.568009 
L 144.404898 31.498575 
L 144.540333 31.387976 
L 144.608051 31.292592 
L 144.675768 31.361753 
L 144.845062 31.35695 
L 145.014357 31.339798 
L 145.217509 31.165405 
L 145.251368 31.29055 
L 145.589956 31.310836 
L 145.759251 31.032489 
L 145.826968 31.164682 
L 145.894686 31.124157 
L 146.06398 30.884133 
L 146.199415 31.071807 
L 146.436427 30.924456 
L 147.723062 30.705193 
L 147.75692 30.491729 
L 147.824638 30.6225 
L 147.858497 30.83831 
L 147.892356 30.566066 
L 148.027791 30.597937 
L 148.095508 30.670366 
L 148.230944 30.339453 
L 148.264802 30.524481 
L 148.33252 30.500182 
L 148.501814 30.421922 
L 149.923884 30.170003 
L 150.093178 29.94442 
L 150.228614 30.042098 
L 150.668778 29.871185 
L 150.702637 29.92418 
L 150.736496 29.843759 
L 150.871931 29.6929 
L 150.90579 29.827409 
L 150.973507 29.799282 
L 151.108943 29.687562 
L 151.17666 29.658134 
L 151.210519 29.565414 
L 151.244378 29.594128 
L 151.278237 29.764362 
L 151.312096 29.631392 
L 151.379813 29.459784 
L 151.413672 29.572786 
L 151.447531 29.602101 
L 151.582966 29.378011 
L 151.75226 29.542408 
L 151.819978 29.35647 
L 151.853837 29.39111 
L 151.887695 29.431242 
L 151.989272 29.217247 
L 152.124707 29.332947 
L 152.226283 29.253265 
L 152.260142 29.291595 
L 152.361719 29.330707 
L 152.395577 29.138542 
L 152.497154 29.195662 
L 152.632589 29.1851 
L 152.700307 29.105186 
L 152.734166 29.151471 
L 152.835742 29.182746 
L 152.937318 29.104271 
L 152.971177 29.190908 
L 153.005036 29.001169 
L 153.038895 29.078633 
L 153.17433 29.058267 
L 153.275907 29.173832 
L 153.411342 28.97261 
L 153.479059 29.059519 
L 153.512918 29.00679 
L 153.546777 28.906393 
L 153.580636 29.076953 
L 153.648354 28.946746 
L 154.020801 28.83186 
L 154.156236 28.73762 
L 154.190095 28.861097 
L 154.223953 28.624535 
L 154.257812 28.723839 
L 154.427106 28.740477 
L 154.528683 28.690173 
L 154.630259 28.760376 
L 154.664118 28.726335 
L 154.833412 28.598813 
L 155.002706 28.716324 
L 155.172 28.421872 
L 155.307435 28.591132 
L 155.476729 28.330128 
L 155.510588 28.482628 
L 155.578306 28.483965 
L 155.679882 28.316498 
L 155.781459 28.410969 
L 155.815317 28.390321 
L 155.916894 28.372553 
L 156.153906 28.265972 
L 156.187764 28.391544 
L 156.255482 28.315681 
L 156.390917 28.264773 
L 156.492494 28.365906 
L 156.526352 28.335965 
L 156.763364 28.27126 
L 156.797223 28.351253 
L 156.864941 28.226375 
L 156.932658 28.282847 
L 156.966517 28.199876 
L 157.068093 27.976485 
L 157.135811 28.074804 
L 157.16967 28.224455 
L 157.237387 28.069273 
L 157.406682 28.144676 
L 157.508258 27.9974 
L 157.542117 28.061336 
L 157.711411 28.00791 
L 157.846846 28.084037 
L 157.880705 27.93708 
L 157.982282 27.979977 
L 158.59174 27.845367 
L 158.625599 27.733411 
L 158.659458 27.882026 
L 158.693317 27.829122 
L 158.828752 27.85731 
L 158.930328 27.819991 
L 158.964187 27.888958 
L 158.998046 27.542745 
L 159.065763 27.804619 
L 159.201199 27.909916 
L 159.336634 27.746863 
L 159.370493 27.768623 
L 159.43821 27.822808 
L 159.472069 27.773656 
L 159.641363 27.759321 
L 159.675222 27.818413 
L 159.709081 27.648788 
L 159.776798 27.700215 
L 159.878375 27.834324 
L 159.946092 27.610032 
L 160.01381 27.728833 
L 160.047669 27.722587 
L 160.081528 27.91496 
L 160.115387 27.685575 
L 160.149245 27.715412 
L 160.250822 27.598628 
L 160.284681 27.676415 
L 160.318539 27.824032 
L 160.352398 27.665934 
L 160.386257 27.603479 
L 160.420116 27.790245 
L 160.487833 27.732053 
L 160.657127 27.537774 
L 160.894139 27.539683 
L 160.927998 27.370323 
L 160.995716 27.565359 
L 161.063433 27.559747 
L 161.097292 27.431968 
L 161.16501 27.487711 
L 161.503598 27.417996 
L 161.537457 27.159173 
L 161.605174 27.266368 
L 161.740609 27.247366 
L 161.774468 27.1293 
L 161.808327 27.289346 
L 161.842186 27.215157 
L 162.01148 27.127757 
L 162.079198 27.238589 
L 162.146915 27.180219 
L 162.248492 27.127049 
L 162.316209 27.192595 
L 162.383927 27.212823 
L 162.451645 27.010876 
L 162.58708 27.052273 
L 162.620939 27.212738 
L 162.654797 26.999089 
L 162.688656 26.90241 
L 162.756374 26.977751 
L 162.824092 27.017778 
L 162.85795 27.069384 
L 162.891809 26.791355 
L 162.959527 26.840577 
L 163.128821 26.936951 
L 163.264256 26.831424 
L 163.298115 26.927637 
L 163.365832 26.788921 
L 163.535127 26.882904 
L 164.076867 26.686198 
L 164.110726 26.592456 
L 164.144585 26.731139 
L 164.178444 26.658875 
L 164.212303 26.768869 
L 164.28002 26.650758 
L 164.449314 26.676798 
L 164.517032 26.612638 
L 164.550891 26.670489 
L 164.58475 26.73095 
L 164.618608 26.58999 
L 164.652467 26.634409 
L 164.686326 26.634754 
L 164.787902 26.414634 
L 164.821761 26.509366 
L 164.991055 26.547374 
L 165.194208 26.400614 
L 165.295785 26.439627 
L 165.329643 26.541257 
L 165.397361 26.415121 
L 165.465079 26.510141 
L 165.498937 26.400082 
L 165.803667 26.504492 
L 165.871384 26.366383 
L 165.905243 26.425179 
L 165.939102 26.461693 
L 166.108396 26.176879 
L 166.27769 26.546916 
L 166.413126 26.311976 
L 166.480843 26.415127 
L 166.514702 26.183396 
L 166.616278 26.202605 
L 166.717855 26.355505 
L 166.751714 26.28398 
L 166.785572 26.321685 
L 166.85329 26.240747 
L 167.022584 26.283354 
L 167.056443 26.169857 
L 167.124161 26.281222 
L 167.158019 26.299945 
L 167.191878 26.229337 
L 167.225737 26.129561 
L 167.259596 26.2901 
L 167.293455 26.172248 
L 167.327313 26.248128 
L 167.395031 26.189522 
L 167.598184 26.167513 
L 167.632043 26.258821 
L 167.665902 26.047249 
L 167.733619 25.985053 
L 167.801337 26.109165 
L 168.072207 26.225322 
L 168.106066 26.099754 
L 168.173784 25.992907 
L 168.241501 26.076375 
L 168.309219 26.158758 
L 168.343078 25.988763 
L 168.410795 26.017368 
L 168.546231 26.064295 
L 168.681666 26.003668 
L 168.749383 26.034473 
L 168.783242 25.975043 
L 168.85096 26.00067 
L 168.952536 26.142596 
L 168.986395 26.026514 
L 169.020254 26.016701 
L 169.054113 26.127027 
L 169.087972 26.044425 
L 169.12183 25.940392 
L 169.189548 26.024741 
L 169.291124 26.066282 
L 169.324983 25.98621 
L 169.358842 25.849193 
L 169.392701 26.063284 
L 169.42656 25.986871 
L 169.460418 26.208443 
L 169.528136 26.070291 
L 169.799007 26.073933 
L 169.866724 26.161881 
L 169.900583 25.965427 
L 169.968301 26.184728 
L 170.036018 26.066166 
L 170.069877 26.124191 
L 170.103736 26.145568 
L 170.171454 26.182684 
L 170.239171 25.995747 
L 170.374607 26.150253 
L 170.408465 26.122549 
L 170.611618 25.953063 
L 170.645477 26.211963 
L 170.713195 26.03243 
L 170.780912 26.068077 
L 170.814771 26.011306 
L 171.153359 26.06828 
L 171.187218 26.21394 
L 171.221077 25.965164 
L 171.254936 26.081291 
L 171.390371 25.904006 
L 171.525806 25.765825 
L 171.559665 25.855972 
L 171.627383 25.796115 
L 171.6951 25.874189 
L 171.830535 25.701322 
L 171.864394 25.736347 
L 171.932112 25.66201 
L 172.033688 25.449178 
L 172.135265 25.519631 
L 172.473853 25.316899 
L 172.54157 25.416148 
L 172.609288 25.330248 
L 172.744723 25.279744 
L 172.880158 25.265901 
L 172.981735 25.266846 
L 173.015594 25.130713 
L 173.083311 25.217653 
L 173.11717 25.277395 
L 173.151029 25.216549 
L 173.320323 24.983354 
L 173.354182 25.244215 
L 173.421899 24.996566 
L 173.455758 25.080699 
L 173.489617 25.044261 
L 173.523476 24.884253 
L 173.557335 25.09135 
L 173.591193 25.094302 
L 173.726629 25.023324 
L 173.862064 24.985605 
L 173.997499 25.016477 
L 174.099076 24.726093 
L 174.166793 24.773888 
L 174.234511 24.713223 
L 174.336087 24.857592 
L 174.640817 24.706181 
L 174.776252 24.745242 
L 174.877828 24.42511 
L 174.945546 24.639371 
L 175.047123 24.59207 
L 175.216417 24.52381 
L 175.250275 24.639165 
L 175.317993 24.519913 
L 175.453428 24.532912 
L 175.555005 24.436573 
L 175.588863 24.568929 
L 175.69044 24.523667 
L 176.029028 24.255905 
L 176.062887 24.364434 
L 176.164463 24.476566 
L 176.198322 24.308766 
L 176.26604 24.403025 
L 176.469193 24.439932 
L 176.53691 24.379899 
L 176.570769 24.498387 
L 176.638487 24.384842 
L 176.706204 24.42087 
L 176.740063 24.564905 
L 176.807781 24.37532 
L 177.010933 24.338647 
L 177.078651 24.483176 
L 177.11251 24.890147 
L 177.180228 24.476793 
L 177.214086 24.396722 
L 177.281804 24.439282 
L 177.620392 24.419954 
L 177.68811 24.312937 
L 177.721968 24.365307 
L 177.789686 24.281771 
L 177.823545 24.230194 
L 177.857404 24.344715 
L 178.162133 24.422931 
L 178.195992 24.259122 
L 178.26371 24.395695 
L 178.53458 24.359606 
L 178.602298 24.464462 
L 178.636157 24.378987 
L 178.771592 24.303779 
L 178.907027 24.385898 
L 179.211756 24.267735 
L 179.313333 24.338057 
L 179.482627 24.220995 
L 179.516486 24.270692 
L 179.584203 24.208795 
L 179.618062 24.173554 
L 179.651921 24.248823 
L 179.821215 24.315248 
L 179.888933 24.260666 
L 179.922791 24.301933 
L 180.092085 24.362437 
L 180.159803 24.418166 
L 180.227521 24.331818 
L 180.261379 24.422574 
L 180.329097 24.389175 
L 180.498391 24.361002 
L 180.633826 24.447554 
L 180.667685 24.162212 
L 180.735403 24.407255 
L 180.836979 24.447083 
L 180.870838 24.41273 
L 181.920461 24.329392 
L 181.95432 24.786456 
L 181.988179 24.259976 
L 182.022038 24.343836 
L 182.292908 24.201802 
L 182.462202 24.165824 
L 182.699214 23.998846 
L 182.733073 24.074773 
L 182.80079 24.031712 
L 183.207096 23.819678 
L 183.240955 23.902413 
L 183.410249 23.97902 
L 183.444108 23.936792 
L 183.647261 23.807779 
L 183.748837 23.893217 
L 183.816555 23.828651 
L 183.850413 23.897444 
L 183.884272 23.939054 
L 183.918131 23.81524 
L 184.121284 23.722717 
L 184.324437 23.739559 
L 184.426013 23.582574 
L 184.493731 23.676705 
L 184.629166 23.656725 
L 184.730743 23.661227 
L 184.764601 23.732227 
L 184.900037 23.427083 
L 184.967754 23.559314 
L 185.035472 23.519115 
L 185.204766 23.564229 
L 185.407919 23.463023 
L 185.577213 23.430475 
L 185.611072 23.580297 
L 185.64493 23.378379 
L 185.678789 23.385733 
L 185.780366 23.387162 
L 185.881942 23.298739 
L 185.915801 23.321254 
L 186.728412 23.294948 
L 186.762271 23.209882 
L 186.829989 23.296651 
L 186.999283 23.312645 
L 187.134718 23.293525 
L 187.304012 23.384881 
L 187.507165 23.27706 
L 187.608742 23.368647 
L 187.6426 23.309136 
L 187.676459 23.172777 
L 187.744177 23.352024 
L 187.879612 23.436307 
L 187.913471 23.241159 
L 187.981188 23.338126 
L 188.015047 23.307595 
L 188.048906 23.484093 
L 188.082765 23.258366 
L 188.116624 23.382286 
L 188.2182 23.435255 
L 188.252059 23.531961 
L 188.319777 23.486368 
L 188.489071 23.39338 
L 188.522929 23.412199 
L 188.556788 23.228048 
L 188.590647 23.425989 
L 188.624506 23.392645 
L 188.759941 23.455093 
L 188.7938 23.354564 
L 188.861518 23.396809 
L 189.030812 23.5353 
L 189.132388 23.324148 
L 189.166247 23.410913 
L 189.233964 23.321435 
L 189.403258 23.35148 
L 189.437117 23.322644 
L 189.470976 23.38774 
L 189.572553 23.394007 
L 189.775705 23.304126 
L 190.012717 23.392899 
L 190.114293 23.375198 
L 190.249729 23.332746 
L 190.283588 23.37608 
L 190.317446 23.366333 
L 190.351305 23.201835 
L 190.419023 23.342802 
L 190.926905 23.414376 
L 190.960764 23.315043 
L 191.028482 23.341758 
L 191.197776 23.388821 
L 191.333211 23.244734 
L 191.400928 23.442136 
L 191.434787 23.411571 
L 191.502505 23.187101 
L 191.536364 23.198478 
L 191.604081 23.327064 
L 191.671799 23.290809 
L 191.841093 23.325712 
L 192.111963 23.165916 
L 192.21354 23.231263 
L 192.348975 23.156752 
L 192.958434 23.005424 
L 192.992293 23.069265 
L 193.026151 22.909589 
L 193.06001 23.001849 
L 193.195445 22.862992 
L 193.229304 22.896859 
L 193.263163 22.911445 
L 193.297022 22.819936 
L 193.872622 22.686422 
L 193.90648 22.574759 
L 194.008057 22.621215 
L 194.143492 22.589755 
L 194.414363 22.497327 
L 194.515939 22.55821 
L 194.549798 22.48402 
L 194.78681 22.32774 
L 194.956104 22.418062 
L 194.989962 22.431351 
L 195.125398 22.286992 
L 195.294692 22.25834 
L 195.430127 22.354831 
L 195.565562 22.204586 
L 195.599421 22.262432 
L 195.802574 22.137073 
L 195.836433 22.21622 
L 195.90415 22.291988 
L 195.938009 22.202626 
L 196.005727 22.183236 
L 196.039586 22.311157 
L 196.073444 22.151445 
L 196.107303 22.161913 
L 196.20888 22.204031 
L 196.344315 22.119212 
L 196.47975 22.152134 
L 196.649044 22.109004 
L 196.784479 22.155008 
L 196.953773 22.12117 
L 197.224644 22.220134 
L 197.32622 22.03061 
L 197.360079 22.128498 
L 197.427797 22.220821 
L 197.461656 22.071111 
L 197.529373 22.183985 
L 197.597091 22.216657 
L 197.63095 22.313947 
L 197.698667 22.267223 
L 197.800244 22.208027 
L 197.834103 22.229516 
L 198.308126 22.31769 
L 198.341985 22.046226 
L 198.409702 22.287657 
L 198.443561 22.210294 
L 198.47742 22.406966 
L 198.545138 22.045938 
L 198.646714 22.275049 
L 198.714432 22.47453 
L 198.74829 22.334495 
L 198.782149 22.293565 
L 198.849867 22.385009 
L 199.086879 22.349804 
L 199.120737 22.285763 
L 199.188455 22.385501 
L 199.425467 22.346082 
L 199.560902 22.348318 
L 200.644384 22.391577 
L 200.712102 22.43836 
L 200.74596 22.393588 
L 201.355419 22.312155 
L 201.490854 22.38915 
L 201.761725 22.315313 
L 201.795583 22.365171 
L 201.863301 22.30737 
L 201.998736 22.258934 
L 202.032595 22.38291 
L 202.100313 22.310949 
L 202.269607 22.181007 
L 202.303466 22.271444 
L 202.371183 22.170045 
L 202.540477 22.261708 
L 202.642054 22.09817 
L 202.675913 22.122692 
L 202.980642 22.080075 
L 203.116077 21.986153 
L 203.251512 22.052262 
L 203.420807 21.836142 
L 203.488524 21.869093 
L 203.522383 21.829389 
L 203.759395 21.769443 
L 203.827112 21.830756 
L 203.962548 21.659206 
L 204.064124 21.645567 
L 204.1657 21.675818 
L 204.436571 21.516868 
L 204.504288 21.54361 
L 204.538147 21.433682 
L 204.639724 21.473837 
L 204.7413 21.525375 
L 204.876735 21.387988 
L 205.046029 21.43928 
L 205.249182 21.304393 
L 205.350759 21.271663 
L 205.418476 21.184454 
L 205.486194 21.315619 
L 205.655488 21.106655 
L 205.790923 21.31165 
L 205.858641 21.152334 
L 205.926358 21.223933 
L 206.027935 21.330527 
L 206.061794 21.251678 
L 206.16337 21.143363 
L 206.197229 21.180327 
L 206.468099 21.127686 
L 206.501958 21.191222 
L 206.535817 21.075366 
L 206.569676 21.104185 
L 206.671252 21.066025 
L 206.705111 21.103922 
L 207.043699 21.07756 
L 207.212993 21.063948 
L 207.31457 21.128216 
L 207.483864 21.019589 
L 207.653158 21.154016 
L 207.754734 21.137508 
L 207.822452 21.206291 
L 207.856311 21.155124 
L 207.991746 21.130884 
L 208.093323 21.192499 
L 208.127181 21.171032 
L 208.262617 21.286031 
L 208.73664 21.303235 
L 208.872075 21.316226 
L 208.939793 21.247852 
L 209.041369 21.357277 
L 209.075228 21.272371 
L 209.109087 21.415751 
L 209.515393 21.417505 
L 209.616969 21.518353 
L 209.684687 21.297319 
L 209.752404 21.358199 
L 209.887839 21.432232 
L 209.921698 21.35191 
L 209.955557 21.465766 
L 209.989416 21.445832 
L 210.192569 21.451878 
L 210.260286 21.395883 
L 210.395722 21.635967 
L 210.42958 21.625433 
L 210.565016 21.448413 
L 210.768168 21.544525 
L 210.903604 21.440337 
L 211.072898 21.537427 
L 211.106757 21.43027 
L 211.174474 21.522047 
L 211.30991 21.552065 
L 211.817792 21.530792 
L 211.953227 21.480893 
L 212.020945 21.447997 
L 212.088662 21.53523 
L 212.190239 21.501855 
L 212.224098 21.587242 
L 212.257956 21.469795 
L 212.359533 21.403244 
L 212.42725 21.54982 
L 212.461109 21.445491 
L 212.596544 21.469022 
L 212.630403 21.468158 
L 212.664262 21.653667 
L 212.73198 21.58036 
L 212.765839 21.413156 
L 212.833556 21.427067 
L 212.867415 21.521987 
L 212.935133 21.452371 
L 212.968991 21.375684 
L 213.00285 21.5102 
L 213.036709 21.471225 
L 213.104427 21.470776 
L 213.172144 21.317609 
L 213.239862 21.38203 
L 213.443015 21.212369 
L 213.476874 21.252354 
L 213.57845 21.328995 
L 213.713885 21.250033 
L 213.917038 21.357773 
L 214.052473 21.146233 
L 214.221767 21.095114 
L 214.323344 21.002112 
L 214.357203 21.056257 
L 214.391061 21.146173 
L 214.458779 21.044644 
L 214.526497 20.817678 
L 214.628073 20.960464 
L 214.797367 20.950902 
L 214.865085 20.981284 
L 214.898944 20.901297 
L 215.00052 20.864119 
L 215.034379 20.901289 
L 215.711555 20.748988 
L 215.745414 20.837383 
L 215.779273 20.723937 
L 215.880849 20.641031 
L 215.914708 20.658431 
L 215.948567 20.719651 
L 215.982426 20.562306 
L 216.185579 20.736903 
L 216.219437 20.624307 
L 216.321014 20.479615 
L 216.354873 20.568449 
L 216.693461 20.494074 
L 216.727319 20.410854 
L 216.795037 20.500338 
L 216.862755 20.51667 
L 216.896614 20.394644 
L 216.964331 20.48164 
L 217.235202 20.522893 
L 217.26906 20.555972 
L 217.302919 20.495421 
L 217.336778 20.288742 
L 217.370637 20.538029 
L 217.404496 20.473045 
L 217.438354 20.602463 
L 217.506072 20.510354 
L 217.641507 20.47826 
L 217.810801 20.483578 
L 217.84466 20.406027 
L 217.912378 20.461284 
L 217.946237 20.527585 
L 218.013954 20.487784 
L 218.081672 20.452636 
L 218.115531 20.484205 
L 218.149389 20.603184 
L 218.217107 20.532299 
L 218.318684 20.54198 
L 218.352542 20.61007 
L 218.42026 20.545602 
L 218.792707 20.682087 
L 218.826566 20.722447 
L 218.894283 20.653123 
L 219.503742 20.792525 
L 219.537601 20.64616 
L 219.605318 20.718643 
L 219.673036 20.933573 
L 219.740754 20.789415 
L 219.774613 20.637305 
L 219.84233 20.765547 
L 219.977765 20.819 
L 220.045483 20.775301 
L 220.113201 20.941545 
L 220.180918 20.897431 
L 220.282495 20.81922 
L 220.384071 20.939981 
L 220.41793 20.801937 
L 220.485648 20.89431 
L 220.722659 20.953995 
L 221.095106 20.99162 
L 221.162824 20.947506 
L 221.196683 21.01785 
L 221.230541 21.035398 
L 221.2644 20.961298 
L 221.365977 20.931941 
L 221.399835 20.998469 
L 221.433694 21.072898 
L 221.467553 21.054119 
L 221.535271 20.897718 
L 221.602988 20.977613 
L 221.975435 20.988326 
L 222.11087 21.02048 
L 222.347882 21.078605 
L 222.483317 20.998491 
L 222.68647 21.085613 
L 222.720329 20.914648 
L 222.788047 21.14309 
L 222.889623 20.936247 
L 222.923482 20.995285 
L 223.025058 20.980045 
L 223.058917 20.902589 
L 223.126635 20.98413 
L 223.600658 20.907773 
L 223.634517 20.956975 
L 223.668376 20.927622 
L 223.769952 20.72452 
L 223.83767 20.795933 
L 224.006964 20.676342 
L 224.074682 20.782254 
L 224.142399 20.708395 
L 224.345552 20.561562 
L 224.480987 20.768503 
L 224.650281 20.495345 
L 224.785717 20.472594 
L 224.853434 20.515926 
L 224.887293 20.430343 
L 224.921152 20.502209 
L 224.988869 20.453442 
L 225.158164 20.29286 
L 225.293599 20.297404 
L 225.361316 20.398912 
L 225.429034 20.354949 
L 225.564469 20.20405 
L 225.733763 20.173342 
L 225.83534 20.233465 
L 225.903057 20.191137 
L 226.004634 20.127035 
L 226.038493 20.185295 
L 226.10621 20.082426 
L 226.140069 19.969901 
L 226.173928 20.17506 
L 226.309363 20.223789 
L 226.410939 20.013125 
L 226.444798 20.092219 
L 226.478657 20.16317 
L 226.512516 20.114425 
L 226.647951 20.049229 
L 226.68181 20.035121 
L 226.715669 20.206472 
L 226.783386 20.11666 
L 226.817245 19.891576 
L 226.884963 20.046103 
L 226.918822 20.120216 
L 226.95268 19.982365 
L 226.986539 19.935777 
L 227.054257 19.997662 
L 227.189692 20.171075 
L 227.291269 19.943664 
L 227.325127 19.975382 
L 227.460563 20.04749 
L 227.494421 19.985144 
L 227.562139 20.063114 
L 227.731433 20.045666 
L 228.036163 20.185505 
L 228.171598 20.097572 
L 228.273174 20.199738 
L 228.408609 20.14007 
L 228.544045 20.173388 
L 228.67948 20.199936 
L 228.95035 20.311492 
L 229.085786 20.238954 
L 229.221221 20.303361 
L 229.25508 20.228845 
L 229.322797 20.342917 
L 229.458233 20.30821 
L 229.729103 20.398031 
L 230.304703 20.457693 
L 230.440138 20.496636 
L 230.575573 20.485298 
L 230.711009 20.650828 
L 230.812585 20.459286 
L 230.846444 20.482565 
L 230.914161 20.547326 
L 230.94802 20.430064 
L 231.015738 20.496191 
L 231.354326 20.531941 
L 231.489761 20.439343 
L 231.557479 20.669738 
L 231.591338 20.513058 
L 231.929926 20.456416 
L 231.997643 20.499919 
L 232.031502 20.603379 
L 232.065361 20.477158 
L 232.09922 20.482133 
L 232.200796 20.520682 
L 232.234655 20.405274 
L 232.302373 20.454816 
L 232.471667 20.564762 
L 232.607102 20.483351 
L 232.67482 20.559652 
L 232.708679 20.384935 
L 232.810255 20.430401 
L 232.844114 20.521289 
L 232.911831 20.440625 
L 233.114984 20.418196 
L 233.284278 20.375707 
L 233.351996 20.41286 
L 233.453572 20.306025 
L 233.487431 20.326957 
L 233.52129 20.476985 
L 233.555149 20.334778 
L 233.589008 20.176156 
L 233.656725 20.303522 
L 233.859878 20.02464 
L 233.893737 20.266562 
L 233.961454 20.247974 
L 234.063031 20.097904 
L 234.09689 20.213159 
L 234.232325 20.196832 
L 234.333901 20.136589 
L 234.36776 20.169316 
L 234.401619 20.197071 
L 234.435478 20.119062 
L 234.469337 20.023188 
L 234.537054 20.064172 
L 234.672489 20.010503 
L 234.94336 19.917383 
L 235.078795 19.984391 
L 235.248089 19.870171 
L 235.349666 19.812373 
L 235.51896 19.849091 
L 235.688254 19.64475 
L 235.722113 19.765381 
L 235.78983 19.728264 
L 235.925266 19.73428 
L 235.959124 19.762065 
L 235.992983 19.692006 
L 236.128418 19.658232 
L 236.162277 19.69632 
L 236.229995 19.606447 
L 236.36543 19.604626 
L 236.399289 19.632741 
L 236.433148 19.583728 
L 236.534724 19.543562 
L 236.568583 19.586976 
L 236.704018 19.566262 
L 236.839454 19.62794 
L 236.94103 19.429138 
L 236.974889 19.504977 
L 237.618206 19.397665 
L 237.652065 19.584242 
L 237.719783 19.554232 
L 237.7875 19.391199 
L 237.855218 19.445151 
L 237.990653 19.477456 
L 238.126088 19.428778 
L 238.159947 19.479178 
L 238.3631 19.702266 
L 238.396959 19.620284 
L 238.498535 19.459547 
L 238.532394 19.578735 
L 238.566253 19.735229 
L 238.63397 19.627122 
L 238.667829 19.522498 
L 238.735547 19.580997 
L 238.904841 19.607307 
L 238.972559 19.649792 
L 239.006417 19.762126 
L 239.040276 19.628297 
L 239.074135 19.650137 
L 239.141853 19.587719 
L 239.175711 19.672178 
L 239.345005 19.747461 
L 239.378864 19.691081 
L 239.412723 19.821544 
L 239.649735 19.793387 
L 239.683594 19.878306 
L 239.717452 19.765594 
L 239.751311 19.800786 
L 240.36077 20.063648 
L 240.394629 19.913914 
L 240.462346 20.055139 
L 240.767076 20.202771 
L 240.868652 20.041285 
L 241.004087 20.182511 
L 241.071805 20.14389 
L 241.105664 20.184622 
L 241.20724 20.294514 
L 241.308817 20.143542 
L 241.342675 20.204539 
L 241.410393 20.259125 
L 241.444252 20.233172 
L 241.478111 20.140621 
L 241.545828 20.218923 
L 241.748981 20.288141 
L 241.952134 20.271895 
L 242.087569 20.310956 
L 242.223004 20.278561 
L 242.256863 20.340866 
L 242.324581 20.291444 
L 242.426157 20.252426 
L 242.460016 20.27894 
L 242.527734 20.368063 
L 242.595451 20.236053 
L 243.001757 20.207538 
L 243.137192 20.194501 
L 243.171051 20.231407 
L 243.238769 20.157608 
L 243.441922 20.155575 
L 243.577357 20.095539 
L 243.746651 20.086052 
L 243.78051 20.01666 
L 243.814369 20.104891 
L 243.848227 20.132627 
L 243.915945 19.924942 
L 243.983663 19.960479 
L 244.017521 20.027065 
L 244.085239 19.939499 
L 244.288392 19.986437 
L 244.457686 19.834173 
L 244.491545 19.908977 
L 244.525404 19.810383 
L 244.559263 19.758914 
L 244.62698 19.844736 
L 244.660839 19.935474 
L 244.728557 19.891578 
L 244.796274 19.711996 
L 244.863992 19.77393 
L 245.405733 19.636461 
L 245.47345 19.562146 
L 245.507309 19.314657 
L 245.541168 19.723203 
L 245.575027 19.627647 
L 245.744321 19.508319 
L 245.812039 19.474787 
L 245.845897 19.366094 
L 245.947474 19.397908 
L 245.981333 19.465977 
L 246.04905 19.397189 
L 246.082909 19.278072 
L 246.150627 19.360708 
L 246.252203 19.352807 
L 246.387638 19.263203 
L 246.455356 19.370894 
L 246.489215 19.265697 
L 246.523074 19.208172 
L 246.590791 19.288674 
L 247.132532 19.117272 
L 247.166391 19.288511 
L 247.234109 19.159405 
L 247.267967 19.122368 
L 247.301826 19.224524 
L 247.335685 19.251545 
L 247.369544 19.157094 
L 247.504979 19.097544 
L 247.606555 19.032884 
L 247.640414 19.070627 
L 247.77585 19.250203 
L 247.809708 19.007762 
L 247.911285 19.060978 
L 248.182155 19.256176 
L 248.317591 19.074991 
L 248.385308 19.201652 
L 248.520743 19.179406 
L 248.554602 19.144883 
L 248.588461 19.236186 
L 248.859332 19.211528 
L 248.89319 19.148134 
L 248.927049 19.296764 
L 248.960908 19.249659 
L 249.028626 19.396797 
L 249.096343 19.332002 
L 249.502649 19.418156 
L 249.671943 19.447921 
L 249.875096 19.549354 
L 249.942814 19.648769 
L 250.010531 19.58616 
L 250.145966 19.60442 
L 250.281402 19.641814 
L 250.789284 19.813706 
L 250.823143 19.901916 
L 250.857001 19.805052 
L 250.924719 19.777449 
L 250.958578 19.835825 
L 251.19559 19.780291 
L 251.398742 19.938909 
L 251.432601 19.887877 
L 251.46646 19.964136 
L 251.500319 20.000566 
L 251.534178 19.841738 
L 251.635754 19.881635 
L 251.669613 20.016189 
L 251.73733 19.908645 
L 251.805048 19.83825 
L 251.838907 19.942608 
L 251.940483 19.92504 
L 251.974342 19.8252 
L 252.04206 19.911316 
L 252.211354 19.920756 
L 252.245213 20.008148 
L 252.31293 19.883479 
L 252.549942 20.024638 
L 252.651518 19.885093 
L 252.685377 19.921766 
L 252.990107 19.921917 
L 253.159401 19.778635 
L 253.227118 19.923303 
L 253.260977 19.818347 
L 253.46413 19.881272 
L 253.531848 19.742288 
L 253.599565 19.77691 
L 253.667283 19.842679 
L 253.701142 19.772906 
L 253.836577 19.768609 
L 253.938153 19.722778 
L 254.175165 19.654514 
L 254.3106 19.7732 
L 254.344459 19.698327 
L 254.479894 19.506906 
L 254.513753 19.657297 
L 254.581471 19.500379 
L 254.784624 19.475734 
L 254.953918 19.382438 
L 254.987776 19.508451 
L 255.089353 19.466054 
L 255.360223 19.364765 
L 255.394082 19.428699 
L 255.427941 19.376198 
L 255.4618 19.278178 
L 255.529517 19.322124 
L 255.631094 19.337482 
L 255.766529 19.282292 
L 255.868105 19.24214 
L 255.901964 19.527436 
L 255.935823 19.185601 
L 255.969682 19.345581 
L 256.0374 19.286192 
L 256.206694 19.138249 
L 256.409846 19.107403 
L 256.816152 18.9589 
L 256.951588 19.035357 
L 257.087023 18.914059 
L 257.391752 18.94587 
L 257.561046 18.877258 
L 257.73034 19.025034 
L 257.899634 18.772458 
L 258.001211 18.854873 
L 258.03507 18.832689 
L 258.170505 18.790045 
L 258.272081 18.905138 
L 258.30594 18.848966 
L 258.441375 18.775628 
L 258.57681 18.873454 
L 258.678387 18.950594 
L 258.712246 18.922218 
L 258.779963 18.770359 
L 258.847681 18.832612 
L 259.118551 18.868482 
L 259.355563 18.894865 
L 259.45714 18.829721 
L 259.490998 19.007029 
L 259.592575 18.959396 
L 259.694151 18.931899 
L 259.72801 18.973788 
L 260.134316 19.000001 
L 260.202033 19.104377 
L 260.235892 18.979319 
L 260.439045 19.19589 
L 260.540621 19.108261 
L 260.57448 19.161166 
L 260.676057 19.215123 
L 260.709916 19.103155 
L 260.777633 19.188656 
L 260.980786 19.333013 
L 261.014645 19.288796 
L 261.183939 19.30784 
L 261.319374 19.427506 
L 261.387092 19.262466 
L 261.45481 19.331755 
L 261.488668 19.414628 
L 261.556386 19.358828 
L 261.657962 19.390833 
L 261.72568 19.514214 
L 261.793398 19.391703 
L 261.827256 19.363157 
L 261.861115 19.460976 
L 261.928833 19.507129 
L 261.962692 19.413082 
L 262.064268 19.455463 
L 262.165845 19.621116 
L 262.199703 19.532116 
L 262.267421 19.454174 
L 262.30128 19.529872 
L 262.606009 19.544389 
L 262.639868 19.499171 
L 262.707585 19.57548 
L 262.843021 19.560483 
L 262.87688 19.361737 
L 262.944597 19.57782 
L 262.978456 19.476249 
L 263.012315 19.635614 
L 263.283185 19.563751 
L 263.621773 19.52809 
L 263.757209 19.492726 
L 265.043843 19.233939 
L 265.077702 19.165647 
L 265.14542 19.201332 
L 265.213138 19.246624 
L 265.246996 19.188367 
L 265.551726 19.086408 
L 265.619443 19.231858 
L 265.687161 19.164714 
L 265.822596 19.054761 
L 265.856455 19.097579 
L 265.890314 19.042371 
L 266.025749 18.913888 
L 266.093467 19.052209 
L 266.127325 18.952159 
L 266.330478 18.906458 
L 266.432055 18.921939 
L 266.499772 19.028417 
L 266.533631 18.917584 
L 266.736784 18.830782 
L 267.007655 18.825635 
L 267.041513 18.701197 
L 267.14309 18.733654 
L 267.346243 18.6577 
L 267.380101 18.750245 
L 267.447819 18.66212 
L 267.481678 18.577852 
L 267.549395 18.608591 
L 267.650972 18.655536 
L 267.684831 18.490185 
L 267.786407 18.528861 
L 267.820266 18.609768 
L 267.887984 18.577867 
L 268.023419 18.481098 
L 268.057278 18.580702 
L 268.158854 18.534855 
L 268.192713 18.615504 
L 268.226572 18.382084 
L 268.294289 18.603713 
L 268.429725 18.429608 
L 268.463583 18.474424 
L 268.497442 18.521471 
L 268.531301 18.47181 
L 268.56516 18.399048 
L 268.632877 18.507712 
L 268.903748 18.355915 
L 269.005324 18.506481 
L 269.039183 18.476297 
L 269.174618 18.588826 
L 269.208477 18.494061 
L 269.242336 18.400229 
L 269.310054 18.506977 
L 269.445489 18.517191 
L 269.513207 18.521393 
L 269.547065 18.566844 
L 269.750218 18.589234 
L 269.885654 18.62139 
L 269.919512 18.515215 
L 269.953371 18.817122 
L 270.021089 18.718158 
L 270.190383 18.661156 
L 270.2581 18.729609 
L 270.325818 18.695542 
L 270.56283 18.797567 
L 270.596689 18.662442 
L 270.630547 18.828827 
L 270.664406 18.890134 
L 270.732124 18.796974 
L 270.901418 18.9463 
L 270.935277 18.916443 
L 271.036853 18.918656 
L 271.13843 18.98206 
L 271.172288 18.84187 
L 271.240006 18.95489 
L 271.510876 19.072858 
L 271.612453 19.043976 
L 271.747888 19.177735 
L 271.781747 19.156895 
L 271.951041 19.126648 
L 272.289629 19.137364 
L 272.323488 19.285977 
L 272.391205 19.189623 
L 272.425064 19.144287 
L 272.492782 19.207738 
L 272.662076 19.364667 
L 272.729794 19.208955 
L 272.797511 19.276691 
L 273.068382 19.331751 
L 273.102241 19.273221 
L 273.136099 19.320682 
L 273.169958 19.38922 
L 273.237676 19.309286 
L 273.373111 19.308668 
L 273.508546 19.471821 
L 273.643982 19.332306 
L 273.745558 19.36462 
L 273.880993 19.326145 
L 274.050287 19.402563 
L 274.084146 19.333224 
L 274.151864 19.334623 
L 274.219581 19.212605 
L 274.25344 19.317978 
L 274.388875 19.423272 
L 274.524311 19.245843 
L 274.592028 19.341681 
L 274.625887 19.26186 
L 274.659746 19.137555 
L 274.727464 19.237508 
L 274.795181 19.299354 
L 274.82904 19.239271 
L 275.133769 19.178773 
L 275.235346 19.212881 
L 275.540075 18.937033 
L 275.67551 19.059064 
L 275.709369 19.002704 
L 275.777087 18.858084 
L 275.844804 18.938996 
L 276.014098 18.94478 
L 276.047957 18.947619 
L 276.081816 19.082703 
L 276.149534 18.934711 
L 276.217251 18.809071 
L 276.284969 18.836083 
L 276.318828 18.916472 
L 276.352686 18.894713 
L 276.488122 18.815654 
L 276.623557 18.834101 
L 276.860569 18.719318 
L 276.962145 18.854639 
L 277.029863 18.718405 
L 277.165298 18.672295 
L 277.571604 18.554684 
L 277.639321 18.700882 
L 277.67318 18.53253 
L 277.910192 18.507501 
L 278.045627 18.515574 
L 278.113345 18.486723 
L 278.147204 18.384925 
L 278.214921 18.49231 
L 278.384215 18.425032 
L 278.519651 18.519401 
L 278.587368 18.404775 
L 278.621227 18.445703 
L 278.655086 18.489786 
L 278.688945 18.368529 
L 278.722803 18.435135 
L 279.027533 18.303827 
L 279.196827 18.367406 
L 279.264544 18.243582 
L 279.332262 18.328261 
L 279.433838 18.252437 
L 279.467697 18.307499 
L 279.636991 18.365176 
L 279.772426 18.306816 
L 279.840144 18.417105 
L 279.874003 18.302709 
L 280.212591 18.380284 
L 280.24645 18.315274 
L 280.314167 18.374272 
L 280.483461 18.499913 
L 280.51732 18.43123 
L 280.551179 18.374024 
L 280.618897 18.445972 
L 280.720473 18.461136 
L 280.754332 18.416209 
L 280.82205 18.481299 
L 281.363791 18.709529 
L 281.397649 18.619364 
L 281.499226 18.618228 
L 281.566944 18.686077 
L 281.600802 18.659735 
L 281.634661 18.613469 
L 281.702379 18.685032 
L 281.803955 18.76967 
L 281.837814 18.744219 
L 281.939391 18.781429 
L 282.24412 18.954643 
L 282.311837 18.814898 
L 282.379555 18.861889 
L 282.51499 18.925265 
L 282.853578 18.936247 
L 282.887437 19.228087 
L 282.955155 18.951978 
L 282.989014 18.935211 
L 283.09059 19.232265 
L 283.124449 19.124434 
L 283.226025 19.115812 
L 283.327602 19.224383 
L 283.361461 19.067705 
L 283.429178 19.154767 
L 283.463037 19.227698 
L 283.530755 19.147776 
L 283.835484 19.21897 
L 283.903201 19.311191 
L 283.970919 19.210816 
L 284.51266 19.214108 
L 284.546519 19.106354 
L 284.580378 19.243102 
L 284.614236 19.182595 
L 285.08826 19.085746 
L 285.223695 19.101528 
L 285.291413 19.13252 
L 285.325271 19.053842 
L 285.66386 18.931028 
L 285.697719 19.065197 
L 285.765436 18.894877 
L 285.799295 18.881005 
L 285.833154 19.029475 
L 285.900871 18.925408 
L 286.137883 18.768687 
L 286.273318 18.893153 
L 286.442612 18.61308 
L 286.544189 18.915358 
L 286.578048 18.74367 
L 286.713483 18.517767 
L 286.747342 18.655234 
L 286.781201 18.673899 
L 286.815059 18.587082 
L 286.848918 18.488825 
L 286.916636 18.572448 
L 286.984353 18.595083 
L 287.018212 18.55023 
L 287.390659 18.302796 
L 287.424518 18.504928 
L 287.492236 18.422437 
L 287.593812 18.378595 
L 287.627671 18.435668 
L 287.695388 18.370705 
L 287.830824 18.323533 
L 287.898541 18.407751 
L 287.9324 18.317016 
L 287.966259 18.174651 
L 288.033976 18.259207 
L 288.067835 18.357107 
L 288.135553 18.234473 
L 288.338706 18.328285 
L 288.406423 18.11919 
L 288.474141 18.215466 
L 288.541859 18.301256 
L 288.677294 18.15676 
L 288.711153 18.242077 
L 288.77887 18.16437 
L 288.948164 18.160619 
L 289.151317 18.157238 
L 289.185176 18.217931 
L 289.219035 18.12625 
L 289.252894 18.029514 
L 289.320611 18.08557 
L 289.422188 18.114434 
L 289.456046 17.986306 
L 289.523764 18.114334 
L 289.693058 18.053683 
L 289.760776 18.142876 
L 289.794635 17.896641 
L 289.862352 18.079969 
L 289.93007 18.052146 
L 290.065505 18.246777 
L 290.133223 18.109254 
L 290.200941 18.15488 
L 290.268658 18.263996 
L 290.302517 18.184699 
L 290.336376 18.105812 
L 290.404093 18.17315 
L 290.471811 18.278103 
L 290.539529 18.238347 
L 290.742681 18.251311 
L 290.844258 18.474272 
L 290.979693 18.294689 
L 291.216705 18.340438 
L 291.318281 18.379211 
L 291.385999 18.45253 
L 291.453716 18.353023 
L 291.589152 18.500369 
L 291.656869 18.3765 
L 291.690728 18.535681 
L 291.724587 18.492126 
L 291.758446 18.586128 
L 292.604916 18.669855 
L 292.638775 18.808919 
L 292.706492 18.709593 
L 292.808069 18.584752 
L 292.875786 18.75558 
L 292.909645 18.733767 
L 292.943504 18.638826 
L 293.011222 18.702413 
L 293.146657 18.759295 
L 293.214375 18.873887 
L 293.282092 18.634276 
L 293.552963 18.990112 
L 293.62068 18.823831 
L 293.654539 18.90219 
L 293.789974 18.878815 
L 293.823833 18.854742 
L 293.959269 18.967616 
L 294.094704 18.955004 
L 294.230139 18.96176 
L 294.263998 19.121415 
L 294.331716 19.027468 
L 294.636445 18.89924 
L 294.839598 18.994834 
L 294.873456 18.947531 
L 295.008892 18.917743 
L 295.212045 18.923944 
L 295.245903 19.020678 
L 295.313621 18.915733 
L 295.415197 18.869054 
L 295.482915 18.956982 
L 295.516774 18.87509 
L 295.550633 18.780613 
L 295.61835 18.881669 
L 295.652209 18.946319 
L 295.719927 18.846638 
L 296.024656 18.801572 
L 296.058515 18.877205 
L 296.092374 18.727591 
L 296.126232 18.828617 
L 296.295526 18.610046 
L 296.363244 18.704785 
L 296.397103 18.598911 
L 296.498679 18.540113 
L 296.600256 18.693807 
L 296.667973 18.420727 
L 296.735691 18.480916 
L 296.803409 18.541735 
L 296.837267 18.437715 
L 296.871126 18.432036 
L 297.006561 18.566297 
L 297.141997 18.411452 
L 297.243573 18.452779 
L 297.34515 18.317674 
L 297.379008 18.368287 
L 297.61602 18.305532 
L 297.717597 18.274126 
L 297.751455 18.805838 
L 297.819173 18.314975 
L 297.920749 18.257297 
L 298.157761 18.121642 
L 298.259338 18.189442 
L 298.293196 18.162584 
L 298.631785 17.989035 
L 298.733361 18.11379 
L 298.76722 18.096159 
L 298.834937 17.968399 
L 298.902655 18.019348 
L 299.444396 17.920938 
L 299.478255 17.852989 
L 299.512114 17.976432 
L 299.647549 17.976348 
L 299.681408 17.866363 
L 299.749125 17.991083 
L 299.884561 17.850659 
L 300.053855 17.933771 
L 300.358584 17.797105 
L 300.46016 18.071819 
L 300.494019 18.049563 
L 300.561737 17.843343 
L 300.629454 17.913728 
L 300.731031 17.99178 
L 300.76489 17.786945 
L 300.832607 17.91511 
L 300.900325 18.004543 
L 300.968042 17.968667 
L 301.103478 17.960986 
L 301.205054 18.440369 
L 301.272772 17.931311 
L 301.306631 18.083481 
L 301.340489 18.147675 
L 301.408207 18.081042 
L 301.509783 18.09753 
L 301.679077 18.196074 
L 301.746795 18.253274 
L 301.814513 18.200284 
L 301.983807 18.060941 
L 302.119242 18.308153 
L 302.153101 18.266176 
L 302.18696 18.342968 
L 302.254677 18.325612 
L 302.322395 18.258528 
L 302.356254 18.319553 
L 302.45783 18.370061 
L 302.491689 18.256753 
L 302.559407 18.34998 
L 303.338159 18.549796 
L 303.372018 18.466589 
L 303.405877 18.578055 
L 303.439736 18.518028 
L 303.575171 18.59646 
L 303.676747 18.529375 
L 303.710606 18.620832 
L 303.913759 18.703813 
L 303.981477 18.8416 
L 304.015336 18.680735 
L 304.692512 18.87288 
L 304.726371 19.109181 
L 304.794088 18.933748 
L 304.827947 18.968923 
L 304.895665 18.890793 
L 305.30197 18.959491 
L 305.437406 18.861235 
L 305.471264 18.90241 
L 305.708276 18.997673 
L 305.843711 18.876502 
L 305.911429 18.91205 
L 305.945288 18.873739 
L 305.979147 18.802346 
L 306.046864 18.874327 
L 306.114582 18.923011 
L 306.148441 18.873843 
L 306.317735 18.802884 
L 306.351594 18.827499 
L 306.385452 18.745377 
L 306.520888 18.72828 
L 306.554746 18.776432 
L 306.588605 18.732789 
L 306.656323 18.57286 
L 306.724041 18.610401 
L 306.825617 18.546213 
L 306.859476 18.444476 
L 306.927193 18.533425 
L 307.062629 18.438361 
L 307.29964 18.353021 
L 307.435076 18.435183 
L 307.60437 18.328074 
L 307.638228 18.385975 
L 307.672087 18.348276 
L 307.705946 18.198098 
L 307.807522 18.246147 
L 308.349263 18.038638 
L 308.45084 17.978865 
L 308.484699 18.034645 
L 308.552416 17.93625 
L 308.653993 17.877182 
L 308.687851 17.949344 
L 308.755569 17.891971 
L 309.060298 17.842921 
L 309.195734 17.885201 
L 309.263451 17.755572 
L 309.331169 17.781962 
L 309.500463 17.748601 
L 309.534322 17.693 
L 309.602039 17.757756 
L 309.635898 17.79937 
L 309.703616 17.617425 
L 309.771333 17.638906 
L 309.940627 17.792616 
L 310.109922 17.528415 
L 310.482369 17.640932 
L 310.617804 17.59074 
L 310.71938 17.68774 
L 310.753239 17.648776 
L 310.787098 17.59009 
L 310.888674 17.85268 
L 310.922533 17.769786 
L 310.990251 17.673455 
L 311.057968 17.741299 
L 311.125686 17.811301 
L 311.159545 17.752565 
L 311.193404 17.672976 
L 311.261121 17.742115 
L 311.328839 17.880357 
L 311.396556 17.844786 
L 311.769003 18.01258 
L 311.87058 17.946718 
L 312.006015 18.050279 
L 312.073733 18.041762 
L 312.107591 18.102846 
L 312.209168 18.034472 
L 312.243027 18.133368 
L 312.513897 18.091601 
L 312.649332 18.295423 
L 312.71705 18.199074 
L 312.784768 18.261539 
L 312.886344 18.312382 
L 312.920203 18.217232 
L 312.987921 18.324558 
L 313.123356 18.352589 
L 313.157215 18.327204 
L 313.191073 18.475481 
L 313.258791 18.428116 
L 313.360367 18.375364 
L 313.394226 18.425569 
L 313.461944 18.355275 
L 313.529661 18.533604 
L 313.597379 18.404222 
L 313.665097 18.44615 
L 313.732814 18.531968 
L 313.766673 18.467729 
L 313.800532 18.422682 
L 313.86825 18.497167 
L 314.003685 18.510635 
L 314.037544 18.438706 
L 314.071402 18.741115 
L 314.13912 18.492804 
L 314.172979 18.600339 
L 314.206838 18.394659 
L 314.240697 18.56861 
L 314.342273 18.60359 
L 314.409991 18.692235 
L 314.443849 18.587895 
L 315.493473 18.823125 
L 315.595049 18.840553 
L 315.730484 18.868334 
L 315.832061 18.936234 
L 315.899778 18.72305 
L 315.967496 18.757798 
L 316.102931 18.884521 
L 316.13679 18.845287 
L 316.204508 18.748263 
L 316.272225 18.780082 
L 316.339943 18.813226 
L 316.407661 18.65098 
L 316.475378 18.68379 
L 316.509237 18.789184 
L 316.576955 18.718928 
L 316.847825 18.524101 
L 316.881684 18.575778 
L 316.915543 18.662705 
L 316.98326 18.605458 
L 317.28799 18.369162 
L 317.423425 18.35495 
L 317.491142 18.212684 
L 317.592719 18.300698 
L 317.626578 18.336765 
L 317.660437 18.250917 
L 317.694295 18.157281 
L 317.762013 18.267152 
L 317.931307 18.104974 
L 318.066742 18.186769 
L 318.13446 18.024729 
L 318.202177 18.065402 
L 318.269895 18.149168 
L 318.303754 18.058115 
L 318.473048 17.989388 
L 318.540766 18.085078 
L 318.574624 18.00033 
L 318.676201 17.845528 
L 318.71006 18.064139 
L 318.777777 17.886248 
L 318.947072 17.918809 
L 319.014789 17.783834 
L 319.082507 17.822322 
L 319.217942 17.792919 
L 319.251801 17.668434 
L 319.319518 17.773932 
L 319.454954 17.70786 
L 319.488812 17.760062 
L 319.624248 17.739544 
L 319.691965 17.630103 
L 319.759683 17.679032 
L 320.267565 17.654798 
L 320.301424 17.560407 
L 320.369142 17.671013 
L 320.741588 17.453809 
L 320.775447 17.503493 
L 320.910882 17.596634 
L 320.944741 17.498714 
L 320.9786 17.401885 
L 321.012459 17.63957 
L 321.046318 17.499829 
L 321.147894 17.539799 
L 321.181753 17.519637 
L 321.317188 17.711621 
L 321.384906 17.593178 
L 321.418765 17.553365 
L 321.486482 17.636425 
L 321.655776 17.711409 
L 321.689635 17.641031 
L 321.757353 17.724299 
L 321.892788 17.765526 
L 321.994364 18.005276 
L 322.028223 17.780954 
L 322.062082 17.666421 
L 322.095941 17.721144 
L 322.1298 18.011197 
L 322.197517 17.893731 
L 322.569964 17.95661 
L 322.874694 18.095569 
L 322.942411 18.047055 
L 322.97627 18.110868 
L 323.213282 18.147112 
L 323.314858 18.226832 
L 323.348717 18.107991 
L 323.416435 18.196019 
L 323.484152 18.297496 
L 323.55187 18.269123 
L 323.687305 18.320487 
L 323.856599 18.516593 
L 323.890458 18.315348 
L 323.992034 18.352044 
L 324.093611 18.368831 
L 324.161328 18.478539 
L 324.195187 18.417377 
L 324.229046 18.348893 
L 324.262905 18.485653 
L 324.364481 18.555003 
L 324.39834 18.60192 
L 324.432199 18.458112 
L 324.499917 18.520565 
L 324.533775 18.551823 
L 324.567634 18.383479 
L 324.635352 18.546011 
L 324.736928 18.642958 
L 324.770787 18.84661 
L 324.838505 18.657538 
L 324.872363 18.602893 
L 324.940081 18.669707 
L 325.54954 18.80964 
L 325.583398 18.779243 
L 325.651116 18.993932 
L 325.684975 18.918858 
L 326.023563 18.869795 
L 326.125139 19.010616 
L 326.158998 18.931158 
L 326.226716 18.972607 
L 326.294433 18.853791 
L 326.39601 18.923316 
L 326.633022 18.801487 
L 326.768457 18.882786 
L 326.903892 18.716857 
L 326.97161 18.820667 
L 327.005469 18.753398 
L 327.377916 18.591652 
L 327.411774 18.71814 
L 327.445633 18.606494 
L 327.581068 18.42397 
L 327.614927 18.518125 
L 327.682645 18.412867 
L 327.851939 18.477874 
L 327.919657 18.202227 
L 328.021233 18.26323 
L 328.055092 18.344863 
L 328.088951 18.25227 
L 328.122809 18.194141 
L 328.156668 18.22876 
L 328.258245 18.325379 
L 328.427539 18.118035 
L 328.495256 18.171672 
L 328.630692 17.987344 
L 328.66455 18.096296 
L 328.732268 17.965824 
L 329.138574 17.932832 
L 329.307868 17.757634 
L 329.341727 17.833472 
L 329.375585 17.731769 
L 329.511021 17.716598 
L 329.849609 17.547575 
L 329.883467 17.474525 
L 329.917326 17.602774 
L 329.951185 17.568618 
L 330.018903 17.589912 
L 330.188197 17.468799 
L 330.255914 17.457457 
L 330.289773 17.324417 
L 330.357491 17.41817 
L 330.425208 17.468085 
L 330.459067 17.407221 
L 330.594502 17.332498 
L 330.729938 17.472937 
L 330.763797 17.351393 
L 330.831514 17.410314 
L 330.865373 17.464691 
L 330.899232 17.377745 
L 330.966949 17.222869 
L 331.034667 17.270645 
L 331.102385 17.333375 
L 331.136244 17.24743 
L 331.23782 17.251227 
L 331.440973 17.338096 
L 331.610267 17.25864 
L 331.745702 17.487938 
L 331.81342 17.369444 
L 331.881137 17.440398 
L 331.982714 17.487538 
L 332.050432 17.403222 
L 332.08429 17.457139 
L 332.287443 17.626654 
L 332.321302 17.588271 
L 332.490596 17.560062 
L 332.626031 17.787042 
L 332.761467 17.775079 
L 333.066196 18.019002 
L 333.100055 17.958409 
L 333.201631 17.931966 
L 333.303207 18.056389 
L 333.337066 18.044641 
L 333.50636 18.184342 
L 333.540219 18.138709 
L 333.641796 18.174939 
L 333.912666 18.366913 
L 334.08196 18.321463 
L 334.217395 18.438848 
L 335.165442 18.734501 
L 335.199301 18.878334 
L 335.267019 18.712631 
L 335.368595 18.743097 
L 335.436313 18.851992 
L 335.470172 18.791627 
L 335.50403 18.688036 
L 335.571748 18.778234 
L 335.605607 18.896752 
L 335.673324 18.861018 
L 335.80876 18.87551 
L 335.842618 19.022555 
L 335.876477 18.867554 
L 335.910336 18.774595 
L 335.978054 18.854954 
L 336.011912 18.993532 
L 336.07963 18.944378 
L 336.215065 18.917499 
L 336.350501 18.905794 
L 336.384359 18.806671 
L 336.452077 18.903836 
L 336.756806 18.862053 
L 336.790665 18.776102 
L 336.858383 18.869304 
L 337.569418 18.608543 
L 337.603277 18.650947 
L 337.637135 18.547851 
L 337.772571 18.491777 
L 337.806429 18.64314 
L 337.840288 18.560981 
L 337.975723 18.351759 
L 338.0773 18.292547 
L 338.178876 18.205611 
L 338.246594 18.292767 
L 338.280453 18.208525 
L 338.34817 18.172657 
L 338.415888 18.345879 
L 338.449747 18.127255 
L 338.517464 18.074826 
L 338.551323 17.97075 
L 338.585182 18.069799 
L 338.6529 18.142507 
L 338.686758 18.082125 
L 338.856052 18.019799 
L 338.92377 17.972287 
L 339.059205 17.843261 
L 339.126923 17.91196 
L 339.160782 17.82402 
L 339.804099 17.594222 
L 339.939535 17.545929 
L 340.413558 17.436126 
L 340.447417 17.457739 
L 340.481276 17.375225 
L 340.582852 17.366038 
L 340.65057 17.423764 
L 340.684428 17.323848 
L 340.955299 17.27113 
L 341.090734 17.310072 
L 341.158452 17.388613 
L 341.260028 17.283041 
L 341.293887 17.35932 
L 341.327746 17.281962 
L 341.395463 17.213226 
L 341.429322 17.285112 
L 341.530899 17.317145 
L 341.564757 17.180541 
L 341.632475 17.246679 
L 342.038781 17.293183 
L 342.140357 17.481733 
L 342.174216 17.404666 
L 342.241934 17.286777 
L 342.309651 17.362454 
L 342.377369 17.448805 
L 342.411228 17.404445 
L 342.445087 17.293412 
L 342.512804 17.410575 
L 342.682098 17.573188 
L 342.885251 17.476894 
L 343.020686 17.872928 
L 343.122263 17.692858 
L 343.257698 17.79051 
L 343.325416 17.790124 
L 343.49471 17.983236 
L 343.528569 17.913767 
L 343.596286 17.963239 
L 343.630145 17.991355 
L 343.664004 17.865868 
L 343.697863 18.086548 
L 343.731722 17.986656 
L 343.833298 18.086698 
L 343.901016 18.181935 
L 343.934874 18.146255 
L 343.968733 18.094091 
L 344.036451 18.172362 
L 344.408898 18.317889 
L 344.544333 18.408155 
L 344.747486 18.506979 
L 344.815203 18.447633 
L 344.849062 18.416229 
L 344.882921 18.524133 
L 345.119933 18.536181 
L 345.255368 18.598444 
L 345.356944 18.57494 
L 345.864827 18.853927 
L 345.932544 18.750409 
L 345.966403 18.831783 
L 346.237273 18.855654 
L 346.372709 18.891118 
L 346.406567 18.821933 
L 346.440426 18.995638 
L 346.474285 18.910355 
L 347.117602 18.827196 
L 347.253038 18.73394 
L 347.286897 18.830325 
L 347.625485 18.67343 
L 347.659344 18.603594 
L 347.727061 18.643254 
L 347.76092 18.741633 
L 347.828638 18.638137 
L 348.099508 18.487744 
L 348.167226 18.57737 
L 348.234943 18.528952 
L 348.33652 18.362348 
L 348.370379 18.383471 
L 348.471955 18.326502 
L 348.641249 18.164507 
L 348.708967 18.178362 
L 348.742826 18.132577 
L 348.878261 17.869101 
L 348.979837 18.004435 
L 349.081414 18.156013 
L 349.115272 18.080054 
L 349.250708 17.890538 
L 349.318425 17.932411 
L 349.352284 17.858328 
L 349.386143 17.741755 
L 349.453861 17.804293 
L 349.521578 17.884264 
L 349.555437 17.788573 
L 349.75859 17.73494 
L 349.927884 17.526022 
L 349.961743 17.70472 
L 350.02946 17.574113 
L 350.60506 17.359673 
L 350.740495 17.407068 
L 350.909789 17.255437 
L 351.079083 17.321554 
L 351.112942 17.186895 
L 351.18066 17.25046 
L 351.282236 17.288302 
L 351.316095 17.23159 
L 351.553107 17.17777 
L 351.688542 17.302986 
L 351.790119 17.11658 
L 351.857836 17.205618 
L 352.094848 17.214228 
L 352.128707 17.25661 
L 352.162566 17.138936 
L 352.196424 17.175435 
L 352.298001 17.20795 
L 353.009036 17.552146 
L 353.042895 17.495495 
L 353.076753 17.561945 
L 353.279906 17.730187 
L 353.313765 17.691568 
L 353.347624 17.769213 
L 353.550777 17.842771 
L 354.160235 18.174058 
L 354.194094 18.178553 
L 354.329529 18.368132 
L 354.397247 18.292808 
L 354.464965 18.360022 
L 354.769694 18.491491 
L 355.176 18.772717 
L 355.243717 18.640957 
L 355.345294 18.699805 
L 355.514588 18.75396 
L 355.683882 18.768427 
L 355.717741 19.114588 
L 355.785458 18.826332 
L 355.853176 18.874161 
L 355.887035 18.701495 
L 355.954752 18.880584 
L 355.988611 18.871882 
L 356.02247 19.013112 
L 356.090188 18.879679 
L 356.191764 18.888468 
L 356.259482 18.969538 
L 356.293341 18.91437 
L 356.327199 18.820963 
L 356.394917 18.877082 
L 356.428776 18.985804 
L 356.496493 18.907783 
L 356.564211 18.911946 
L 356.59807 19.022481 
L 356.665788 18.941295 
L 356.801223 18.86583 
L 356.835082 19.102003 
L 356.902799 19.044264 
L 356.970517 18.939193 
L 357.038234 18.978423 
L 357.17367 18.928555 
L 357.207528 18.840941 
L 357.241387 18.96277 
L 357.275246 18.923718 
L 357.309105 18.990717 
L 357.376823 18.917812 
L 357.613834 18.83284 
L 357.647693 18.776064 
L 357.681552 18.930452 
L 357.918563 18.775327 
L 357.986281 18.817235 
L 358.02014 18.769675 
L 358.155575 18.727954 
L 358.257152 18.648299 
L 358.29101 18.556422 
L 358.358728 18.594602 
L 358.528022 18.550892 
L 358.697316 18.393029 
L 358.731175 18.299466 
L 358.832751 18.338539 
L 358.86661 18.387963 
L 358.934328 18.157771 
L 359.002045 18.20327 
L 359.103622 18.185872 
L 359.171339 18.106457 
L 359.205198 18.463796 
L 359.272916 18.050216 
L 359.306775 18.127866 
L 359.340633 17.963689 
L 359.374492 17.887736 
L 359.44221 17.993015 
L 359.509928 18.003193 
L 359.611504 17.826062 
L 359.679222 17.894067 
L 359.746939 17.921392 
L 359.882375 17.779012 
L 359.916233 17.858562 
L 359.983951 17.734366 
L 360.254822 17.649956 
L 360.28868 17.752948 
L 360.322539 17.571304 
L 360.457974 17.537038 
L 360.661127 17.454002 
L 360.796563 17.475762 
L 360.999715 17.408313 
L 361.033574 17.446351 
L 361.067433 17.377658 
L 361.202868 17.351823 
L 361.270586 17.4191 
L 361.304445 17.327397 
L 361.406021 17.280364 
L 361.43988 17.346302 
L 361.507598 17.281078 
L 361.541456 17.200023 
L 361.609174 17.243649 
L 361.676892 17.318121 
L 361.744609 17.243229 
L 362.01548 17.267951 
L 362.150915 17.262105 
L 362.218633 17.153869 
L 362.28635 17.219721 
L 362.354068 17.272095 
L 362.387927 17.171024 
L 362.489503 17.210455 
L 362.726515 17.281139 
L 362.760373 17.178707 
L 362.794232 17.340251 
L 362.828091 17.268918 
L 362.86195 17.225486 
L 362.963526 17.523581 
L 362.997385 17.470341 
L 363.098962 17.368105 
L 363.234397 17.529545 
L 363.268256 17.385098 
L 363.335973 17.524151 
" style="fill:none;stroke:#1f77b4;stroke-linecap:square;stroke-width:1.5;"/>
   </g>
   <g id="patch_3">
    <path d="M 43.78125 224.64 
L 43.78125 7.2 
" style="fill:none;stroke:#000000;stroke-linecap:square;stroke-linejoin:miter;stroke-width:0.8;"/>
   </g>
   <g id="patch_4">
    <path d="M 378.58125 224.64 
L 378.58125 7.2 
" style="fill:none;stroke:#000000;stroke-linecap:square;stroke-linejoin:miter;stroke-width:0.8;"/>
   </g>
   <g id="patch_5">
    <path d="M 43.78125 224.64 
L 378.58125 224.64 
" style="fill:none;stroke:#000000;stroke-linecap:square;stroke-linejoin:miter;stroke-width:0.8;"/>
   </g>
   <g id="patch_6">
    <path d="M 43.78125 7.2 
L 378.58125 7.2 
" style="fill:none;stroke:#000000;stroke-linecap:square;stroke-linejoin:miter;stroke-width:0.8;"/>
   </g>
   <g id="PathCollection_1">
    <defs>
     <path d="M 0 1.118034 
C 0.296506 1.118034 0.580908 1.000231 0.790569 0.790569 
C 1.000231 0.580908 1.118034 0.296506 1.118034 0 
C 1.118034 -0.296506 1.000231 -0.580908 0.790569 -0.790569 
C 0.580908 -1.000231 0.296506 -1.118034 0 -1.118034 
C -0.296506 -1.118034 -0.580908 -1.000231 -0.790569 -0.790569 
C -1.000231 -0.580908 -1.118034 -0.296506 -1.118034 0 
C -1.118034 0.296506 -1.000231 0.580908 -0.790569 0.790569 
C -0.580908 1.000231 -0.296506 1.118034 0 1.118034 
z
" id="me468a6c95c" style="stroke:#ff7f0e;"/>
    </defs>
    <g clip-path="url(#pbe7b20e560)">
     <use style="fill:#ff7f0e;stroke:#ff7f0e;" x="58.999432" xlink:href="#me468a6c95c" y="214.756364"/>
     <use style="fill:#ff7f0e;stroke:#ff7f0e;" x="62.073812" xlink:href="#me468a6c95c" y="194.137711"/>
     <use style="fill:#ff7f0e;stroke:#ff7f0e;" x="65.148192" xlink:href="#me468a6c95c" y="174.799509"/>
     <use style="fill:#ff7f0e;stroke:#ff7f0e;" x="68.222572" xlink:href="#me468a6c95c" y="157.204552"/>
     <use style="fill:#ff7f0e;stroke:#ff7f0e;" x="71.296953" xlink:href="#me468a6c95c" y="141.314728"/>
     <use style="fill:#ff7f0e;stroke:#ff7f0e;" x="74.371332" xlink:href="#me468a6c95c" y="127.772108"/>
     <use style="fill:#ff7f0e;stroke:#ff7f0e;" x="77.445712" xlink:href="#me468a6c95c" y="115.588531"/>
     <use style="fill:#ff7f0e;stroke:#ff7f0e;" x="80.520091" xlink:href="#me468a6c95c" y="104.829968"/>
     <use style="fill:#ff7f0e;stroke:#ff7f0e;" x="83.594473" xlink:href="#me468a6c95c" y="95.816498"/>
     <use style="fill:#ff7f0e;stroke:#ff7f0e;" x="86.668853" xlink:href="#me468a6c95c" y="87.443136"/>
     <use style="fill:#ff7f0e;stroke:#ff7f0e;" x="89.743233" xlink:href="#me468a6c95c" y="80.359606"/>
     <use style="fill:#ff7f0e;stroke:#ff7f0e;" x="92.817615" xlink:href="#me468a6c95c" y="74.404884"/>
     <use style="fill:#ff7f0e;stroke:#ff7f0e;" x="95.891994" xlink:href="#me468a6c95c" y="68.635586"/>
     <use style="fill:#ff7f0e;stroke:#ff7f0e;" x="98.966374" xlink:href="#me468a6c95c" y="63.941712"/>
     <use style="fill:#ff7f0e;stroke:#ff7f0e;" x="102.040756" xlink:href="#me468a6c95c" y="59.632304"/>
     <use style="fill:#ff7f0e;stroke:#ff7f0e;" x="105.115133" xlink:href="#me468a6c95c" y="55.871568"/>
     <use style="fill:#ff7f0e;stroke:#ff7f0e;" x="108.189515" xlink:href="#me468a6c95c" y="52.585887"/>
     <use style="fill:#ff7f0e;stroke:#ff7f0e;" x="111.263897" xlink:href="#me468a6c95c" y="49.767487"/>
     <use style="fill:#ff7f0e;stroke:#ff7f0e;" x="114.338274" xlink:href="#me468a6c95c" y="47.023059"/>
     <use style="fill:#ff7f0e;stroke:#ff7f0e;" x="117.412656" xlink:href="#me468a6c95c" y="44.854642"/>
     <use style="fill:#ff7f0e;stroke:#ff7f0e;" x="120.487034" xlink:href="#me468a6c95c" y="42.618233"/>
     <use style="fill:#ff7f0e;stroke:#ff7f0e;" x="123.561416" xlink:href="#me468a6c95c" y="40.655914"/>
     <use style="fill:#ff7f0e;stroke:#ff7f0e;" x="126.635798" xlink:href="#me468a6c95c" y="39.046655"/>
     <use style="fill:#ff7f0e;stroke:#ff7f0e;" x="129.710175" xlink:href="#me468a6c95c" y="37.475119"/>
     <use style="fill:#ff7f0e;stroke:#ff7f0e;" x="132.784552" xlink:href="#me468a6c95c" y="35.956637"/>
     <use style="fill:#ff7f0e;stroke:#ff7f0e;" x="135.858934" xlink:href="#me468a6c95c" y="34.699862"/>
     <use style="fill:#ff7f0e;stroke:#ff7f0e;" x="138.933311" xlink:href="#me468a6c95c" y="33.57235"/>
     <use style="fill:#ff7f0e;stroke:#ff7f0e;" x="142.007688" xlink:href="#me468a6c95c" y="32.48876"/>
     <use style="fill:#ff7f0e;stroke:#ff7f0e;" x="145.08207" xlink:href="#me468a6c95c" y="31.32266"/>
     <use style="fill:#ff7f0e;stroke:#ff7f0e;" x="148.156452" xlink:href="#me468a6c95c" y="30.530235"/>
     <use style="fill:#ff7f0e;stroke:#ff7f0e;" x="151.230834" xlink:href="#me468a6c95c" y="29.594133"/>
     <use style="fill:#ff7f0e;stroke:#ff7f0e;" x="154.305216" xlink:href="#me468a6c95c" y="28.748622"/>
     <use style="fill:#ff7f0e;stroke:#ff7f0e;" x="157.379598" xlink:href="#me468a6c95c" y="28.126773"/>
     <use style="fill:#ff7f0e;stroke:#ff7f0e;" x="160.453981" xlink:href="#me468a6c95c" y="27.638539"/>
     <use style="fill:#ff7f0e;stroke:#ff7f0e;" x="163.528363" xlink:href="#me468a6c95c" y="26.882906"/>
     <use style="fill:#ff7f0e;stroke:#ff7f0e;" x="166.602735" xlink:href="#me468a6c95c" y="26.2026"/>
     <use style="fill:#ff7f0e;stroke:#ff7f0e;" x="169.677117" xlink:href="#me468a6c95c" y="25.994318"/>
     <use style="fill:#ff7f0e;stroke:#ff7f0e;" x="172.751499" xlink:href="#me468a6c95c" y="25.279745"/>
     <use style="fill:#ff7f0e;stroke:#ff7f0e;" x="175.825881" xlink:href="#me468a6c95c" y="24.409435"/>
     <use style="fill:#ff7f0e;stroke:#ff7f0e;" x="178.900263" xlink:href="#me468a6c95c" y="24.385906"/>
     <use style="fill:#ff7f0e;stroke:#ff7f0e;" x="181.974635" xlink:href="#me468a6c95c" y="24.259982"/>
     <use style="fill:#ff7f0e;stroke:#ff7f0e;" x="185.049017" xlink:href="#me468a6c95c" y="23.519119"/>
     <use style="fill:#ff7f0e;stroke:#ff7f0e;" x="188.123399" xlink:href="#me468a6c95c" y="23.382286"/>
     <use style="fill:#ff7f0e;stroke:#ff7f0e;" x="191.197772" xlink:href="#me468a6c95c" y="23.388824"/>
     <use style="fill:#ff7f0e;stroke:#ff7f0e;" x="194.272154" xlink:href="#me468a6c95c" y="22.545193"/>
     <use style="fill:#ff7f0e;stroke:#ff7f0e;" x="197.346536" xlink:href="#me468a6c95c" y="22.128492"/>
     <use style="fill:#ff7f0e;stroke:#ff7f0e;" x="200.420918" xlink:href="#me468a6c95c" y="22.273948"/>
     <use style="fill:#ff7f0e;stroke:#ff7f0e;" x="203.4953" xlink:href="#me468a6c95c" y="21.869088"/>
     <use style="fill:#ff7f0e;stroke:#ff7f0e;" x="206.569672" xlink:href="#me468a6c95c" y="21.104189"/>
     <use style="fill:#ff7f0e;stroke:#ff7f0e;" x="209.644054" xlink:href="#me468a6c95c" y="21.32111"/>
     <use style="fill:#ff7f0e;stroke:#ff7f0e;" x="212.718436" xlink:href="#me468a6c95c" y="21.580362"/>
     <use style="fill:#ff7f0e;stroke:#ff7f0e;" x="215.792808" xlink:href="#me468a6c95c" y="20.723942"/>
     <use style="fill:#ff7f0e;stroke:#ff7f0e;" x="218.86719" xlink:href="#me468a6c95c" y="20.683728"/>
     <use style="fill:#ff7f0e;stroke:#ff7f0e;" x="221.941572" xlink:href="#me468a6c95c" y="20.971946"/>
     <use style="fill:#ff7f0e;stroke:#ff7f0e;" x="225.015945" xlink:href="#me468a6c95c" y="20.356229"/>
     <use style="fill:#ff7f0e;stroke:#ff7f0e;" x="228.090337" xlink:href="#me468a6c95c" y="20.137309"/>
     <use style="fill:#ff7f0e;stroke:#ff7f0e;" x="231.164709" xlink:href="#me468a6c95c" y="20.533987"/>
     <use style="fill:#ff7f0e;stroke:#ff7f0e;" x="234.239081" xlink:href="#me468a6c95c" y="20.196833"/>
     <use style="fill:#ff7f0e;stroke:#ff7f0e;" x="237.313473" xlink:href="#me468a6c95c" y="19.430274"/>
     <use style="fill:#ff7f0e;stroke:#ff7f0e;" x="240.387845" xlink:href="#me468a6c95c" y="19.913917"/>
     <use style="fill:#ff7f0e;stroke:#ff7f0e;" x="243.462237" xlink:href="#me468a6c95c" y="20.099213"/>
     <use style="fill:#ff7f0e;stroke:#ff7f0e;" x="246.536609" xlink:href="#me468a6c95c" y="19.208169"/>
     <use style="fill:#ff7f0e;stroke:#ff7f0e;" x="249.610982" xlink:href="#me468a6c95c" y="19.432832"/>
     <use style="fill:#ff7f0e;stroke:#ff7f0e;" x="252.685373" xlink:href="#me468a6c95c" y="19.92176"/>
     <use style="fill:#ff7f0e;stroke:#ff7f0e;" x="255.759765" xlink:href="#me468a6c95c" y="19.282295"/>
     <use style="fill:#ff7f0e;stroke:#ff7f0e;" x="258.834137" xlink:href="#me468a6c95c" y="18.832614"/>
     <use style="fill:#ff7f0e;stroke:#ff7f0e;" x="261.908529" xlink:href="#me468a6c95c" y="19.518272"/>
     <use style="fill:#ff7f0e;stroke:#ff7f0e;" x="264.982902" xlink:href="#me468a6c95c" y="19.290934"/>
     <use style="fill:#ff7f0e;stroke:#ff7f0e;" x="268.057293" xlink:href="#me468a6c95c" y="18.580697"/>
     <use style="fill:#ff7f0e;stroke:#ff7f0e;" x="271.131666" xlink:href="#me468a6c95c" y="18.982067"/>
     <use style="fill:#ff7f0e;stroke:#ff7f0e;" x="274.206038" xlink:href="#me468a6c95c" y="19.212607"/>
     <use style="fill:#ff7f0e;stroke:#ff7f0e;" x="277.28043" xlink:href="#me468a6c95c" y="18.606309"/>
     <use style="fill:#ff7f0e;stroke:#ff7f0e;" x="280.354802" xlink:href="#me468a6c95c" y="18.404243"/>
     <use style="fill:#ff7f0e;stroke:#ff7f0e;" x="283.429174" xlink:href="#me468a6c95c" y="19.154761"/>
     <use style="fill:#ff7f0e;stroke:#ff7f0e;" x="286.503566" xlink:href="#me468a6c95c" y="18.645302"/>
     <use style="fill:#ff7f0e;stroke:#ff7f0e;" x="289.577938" xlink:href="#me468a6c95c" y="18.121209"/>
     <use style="fill:#ff7f0e;stroke:#ff7f0e;" x="292.65233" xlink:href="#me468a6c95c" y="18.808916"/>
     <use style="fill:#ff7f0e;stroke:#ff7f0e;" x="295.726702" xlink:href="#me468a6c95c" y="18.84664"/>
     <use style="fill:#ff7f0e;stroke:#ff7f0e;" x="298.801075" xlink:href="#me468a6c95c" y="18.02718"/>
     <use style="fill:#ff7f0e;stroke:#ff7f0e;" x="301.875466" xlink:href="#me468a6c95c" y="18.13952"/>
     <use style="fill:#ff7f0e;stroke:#ff7f0e;" x="304.949839" xlink:href="#me468a6c95c" y="18.93391"/>
     <use style="fill:#ff7f0e;stroke:#ff7f0e;" x="308.024211" xlink:href="#me468a6c95c" y="18.201178"/>
     <use style="fill:#ff7f0e;stroke:#ff7f0e;" x="311.098603" xlink:href="#me468a6c95c" y="17.774856"/>
     <use style="fill:#ff7f0e;stroke:#ff7f0e;" x="314.172975" xlink:href="#me468a6c95c" y="18.600346"/>
     <use style="fill:#ff7f0e;stroke:#ff7f0e;" x="317.247367" xlink:href="#me468a6c95c" y="18.398755"/>
     <use style="fill:#ff7f0e;stroke:#ff7f0e;" x="320.321739" xlink:href="#me468a6c95c" y="17.591678"/>
     <use style="fill:#ff7f0e;stroke:#ff7f0e;" x="323.396111" xlink:href="#me468a6c95c" y="18.195927"/>
     <use style="fill:#ff7f0e;stroke:#ff7f0e;" x="326.470503" xlink:href="#me468a6c95c" y="18.944463"/>
     <use style="fill:#ff7f0e;stroke:#ff7f0e;" x="329.544876" xlink:href="#me468a6c95c" y="17.709353"/>
     <use style="fill:#ff7f0e;stroke:#ff7f0e;" x="332.619248" xlink:href="#me468a6c95c" y="17.787036"/>
     <use style="fill:#ff7f0e;stroke:#ff7f0e;" x="335.69364" xlink:href="#me468a6c95c" y="18.836646"/>
     <use style="fill:#ff7f0e;stroke:#ff7f0e;" x="338.768012" xlink:href="#me468a6c95c" y="17.949582"/>
     <use style="fill:#ff7f0e;stroke:#ff7f0e;" x="341.842404" xlink:href="#me468a6c95c" y="17.326582"/>
     <use style="fill:#ff7f0e;stroke:#ff7f0e;" x="344.916776" xlink:href="#me468a6c95c" y="18.518463"/>
     <use style="fill:#ff7f0e;stroke:#ff7f0e;" x="347.991148" xlink:href="#me468a6c95c" y="18.561776"/>
     <use style="fill:#ff7f0e;stroke:#ff7f0e;" x="351.06554" xlink:href="#me468a6c95c" y="17.321551"/>
     <use style="fill:#ff7f0e;stroke:#ff7f0e;" x="354.139912" xlink:href="#me468a6c95c" y="18.20543"/>
     <use style="fill:#ff7f0e;stroke:#ff7f0e;" x="357.214304" xlink:href="#me468a6c95c" y="18.840948"/>
     <use style="fill:#ff7f0e;stroke:#ff7f0e;" x="360.288676" xlink:href="#me468a6c95c" y="17.752954"/>
     <use style="fill:#ff7f0e;stroke:#ff7f0e;" x="363.363068" xlink:href="#me468a6c95c" y="17.524159"/>
    </g>
   </g>
   <g id="legend_1">
    <g id="patch_7">
     <path d="M 255.546875 219.64 
L 371.58125 219.64 
Q 373.58125 219.64 373.58125 217.64 
L 373.58125 189.28375 
Q 373.58125 187.28375 371.58125 187.28375 
L 255.546875 187.28375 
Q 253.546875 187.28375 253.546875 189.28375 
L 253.546875 217.64 
Q 253.546875 219.64 255.546875 219.64 
z
" style="fill:#ffffff;opacity:0.8;stroke:#cccccc;stroke-linejoin:miter;"/>
    </g>
    <g id="line2d_16">
     <path d="M 257.546875 195.382188 
L 277.546875 195.382188 
" style="fill:none;stroke:#1f77b4;stroke-linecap:square;stroke-width:1.5;"/>
    </g>
    <g id="line2d_17"/>
    <g id="text_17">
     <!-- terminal velocity -->
     <g transform="translate(285.546875 198.882188)scale(0.1 -0.1)">
      <defs>
       <path d="M 18.3125 70.21875 
L 18.3125 54.6875 
L 36.8125 54.6875 
L 36.8125 47.703125 
L 18.3125 47.703125 
L 18.3125 18.015625 
Q 18.3125 11.328125 20.140625 9.421875 
Q 21.96875 7.515625 27.59375 7.515625 
L 36.8125 7.515625 
L 36.8125 0 
L 27.59375 0 
Q 17.1875 0 13.234375 3.875 
Q 9.28125 7.765625 9.28125 18.015625 
L 9.28125 47.703125 
L 2.6875 47.703125 
L 2.6875 54.6875 
L 9.28125 54.6875 
L 9.28125 70.21875 
z
" id="DejaVuSans-116"/>
       <path d="M 56.203125 29.59375 
L 56.203125 25.203125 
L 14.890625 25.203125 
Q 15.484375 15.921875 20.484375 11.0625 
Q 25.484375 6.203125 34.421875 6.203125 
Q 39.59375 6.203125 44.453125 7.46875 
Q 49.3125 8.734375 54.109375 11.28125 
L 54.109375 2.78125 
Q 49.265625 0.734375 44.1875 -0.34375 
Q 39.109375 -1.421875 33.890625 -1.421875 
Q 20.796875 -1.421875 13.15625 6.1875 
Q 5.515625 13.8125 5.515625 26.8125 
Q 5.515625 40.234375 12.765625 48.109375 
Q 20.015625 56 32.328125 56 
Q 43.359375 56 49.78125 48.890625 
Q 56.203125 41.796875 56.203125 29.59375 
z
M 47.21875 32.234375 
Q 47.125 39.59375 43.09375 43.984375 
Q 39.0625 48.390625 32.421875 48.390625 
Q 24.90625 48.390625 20.390625 44.140625 
Q 15.875 39.890625 15.1875 32.171875 
z
" id="DejaVuSans-101"/>
       <path d="M 41.109375 46.296875 
Q 39.59375 47.171875 37.8125 47.578125 
Q 36.03125 48 33.890625 48 
Q 26.265625 48 22.1875 43.046875 
Q 18.109375 38.09375 18.109375 28.8125 
L 18.109375 0 
L 9.078125 0 
L 9.078125 54.6875 
L 18.109375 54.6875 
L 18.109375 46.1875 
Q 20.953125 51.171875 25.484375 53.578125 
Q 30.03125 56 36.53125 56 
Q 37.453125 56 38.578125 55.875 
Q 39.703125 55.765625 41.0625 55.515625 
z
" id="DejaVuSans-114"/>
       <path d="M 52 44.1875 
Q 55.375 50.25 60.0625 53.125 
Q 64.75 56 71.09375 56 
Q 79.640625 56 84.28125 50.015625 
Q 88.921875 44.046875 88.921875 33.015625 
L 88.921875 0 
L 79.890625 0 
L 79.890625 32.71875 
Q 79.890625 40.578125 77.09375 44.375 
Q 74.3125 48.1875 68.609375 48.1875 
Q 61.625 48.1875 57.5625 43.546875 
Q 53.515625 38.921875 53.515625 30.90625 
L 53.515625 0 
L 44.484375 0 
L 44.484375 32.71875 
Q 44.484375 40.625 41.703125 44.40625 
Q 38.921875 48.1875 33.109375 48.1875 
Q 26.21875 48.1875 22.15625 43.53125 
Q 18.109375 38.875 18.109375 30.90625 
L 18.109375 0 
L 9.078125 0 
L 9.078125 54.6875 
L 18.109375 54.6875 
L 18.109375 46.1875 
Q 21.1875 51.21875 25.484375 53.609375 
Q 29.78125 56 35.6875 56 
Q 41.65625 56 45.828125 52.96875 
Q 50 49.953125 52 44.1875 
z
" id="DejaVuSans-109"/>
       <path d="M 9.421875 54.6875 
L 18.40625 54.6875 
L 18.40625 0 
L 9.421875 0 
z
M 9.421875 75.984375 
L 18.40625 75.984375 
L 18.40625 64.59375 
L 9.421875 64.59375 
z
" id="DejaVuSans-105"/>
       <path d="M 54.890625 33.015625 
L 54.890625 0 
L 45.90625 0 
L 45.90625 32.71875 
Q 45.90625 40.484375 42.875 44.328125 
Q 39.84375 48.1875 33.796875 48.1875 
Q 26.515625 48.1875 22.3125 43.546875 
Q 18.109375 38.921875 18.109375 30.90625 
L 18.109375 0 
L 9.078125 0 
L 9.078125 54.6875 
L 18.109375 54.6875 
L 18.109375 46.1875 
Q 21.34375 51.125 25.703125 53.5625 
Q 30.078125 56 35.796875 56 
Q 45.21875 56 50.046875 50.171875 
Q 54.890625 44.34375 54.890625 33.015625 
z
" id="DejaVuSans-110"/>
       <path d="M 34.28125 27.484375 
Q 23.390625 27.484375 19.1875 25 
Q 14.984375 22.515625 14.984375 16.5 
Q 14.984375 11.71875 18.140625 8.90625 
Q 21.296875 6.109375 26.703125 6.109375 
Q 34.1875 6.109375 38.703125 11.40625 
Q 43.21875 16.703125 43.21875 25.484375 
L 43.21875 27.484375 
z
M 52.203125 31.203125 
L 52.203125 0 
L 43.21875 0 
L 43.21875 8.296875 
Q 40.140625 3.328125 35.546875 0.953125 
Q 30.953125 -1.421875 24.3125 -1.421875 
Q 15.921875 -1.421875 10.953125 3.296875 
Q 6 8.015625 6 15.921875 
Q 6 25.140625 12.171875 29.828125 
Q 18.359375 34.515625 30.609375 34.515625 
L 43.21875 34.515625 
L 43.21875 35.40625 
Q 43.21875 41.609375 39.140625 45 
Q 35.0625 48.390625 27.6875 48.390625 
Q 23 48.390625 18.546875 47.265625 
Q 14.109375 46.140625 10.015625 43.890625 
L 10.015625 52.203125 
Q 14.9375 54.109375 19.578125 55.046875 
Q 24.21875 56 28.609375 56 
Q 40.484375 56 46.34375 49.84375 
Q 52.203125 43.703125 52.203125 31.203125 
z
" id="DejaVuSans-97"/>
       <path d="M 9.421875 75.984375 
L 18.40625 75.984375 
L 18.40625 0 
L 9.421875 0 
z
" id="DejaVuSans-108"/>
       <path id="DejaVuSans-32"/>
       <path d="M 2.984375 54.6875 
L 12.5 54.6875 
L 29.59375 8.796875 
L 46.6875 54.6875 
L 56.203125 54.6875 
L 35.6875 0 
L 23.484375 0 
z
" id="DejaVuSans-118"/>
       <path d="M 30.609375 48.390625 
Q 23.390625 48.390625 19.1875 42.75 
Q 14.984375 37.109375 14.984375 27.296875 
Q 14.984375 17.484375 19.15625 11.84375 
Q 23.34375 6.203125 30.609375 6.203125 
Q 37.796875 6.203125 41.984375 11.859375 
Q 46.1875 17.53125 46.1875 27.296875 
Q 46.1875 37.015625 41.984375 42.703125 
Q 37.796875 48.390625 30.609375 48.390625 
z
M 30.609375 56 
Q 42.328125 56 49.015625 48.375 
Q 55.71875 40.765625 55.71875 27.296875 
Q 55.71875 13.875 49.015625 6.21875 
Q 42.328125 -1.421875 30.609375 -1.421875 
Q 18.84375 -1.421875 12.171875 6.21875 
Q 5.515625 13.875 5.515625 27.296875 
Q 5.515625 40.765625 12.171875 48.375 
Q 18.84375 56 30.609375 56 
z
" id="DejaVuSans-111"/>
       <path d="M 48.78125 52.59375 
L 48.78125 44.1875 
Q 44.96875 46.296875 41.140625 47.34375 
Q 37.3125 48.390625 33.40625 48.390625 
Q 24.65625 48.390625 19.8125 42.84375 
Q 14.984375 37.3125 14.984375 27.296875 
Q 14.984375 17.28125 19.8125 11.734375 
Q 24.65625 6.203125 33.40625 6.203125 
Q 37.3125 6.203125 41.140625 7.25 
Q 44.96875 8.296875 48.78125 10.40625 
L 48.78125 2.09375 
Q 45.015625 0.34375 40.984375 -0.53125 
Q 36.96875 -1.421875 32.421875 -1.421875 
Q 20.0625 -1.421875 12.78125 6.34375 
Q 5.515625 14.109375 5.515625 27.296875 
Q 5.515625 40.671875 12.859375 48.328125 
Q 20.21875 56 33.015625 56 
Q 37.15625 56 41.109375 55.140625 
Q 45.0625 54.296875 48.78125 52.59375 
z
" id="DejaVuSans-99"/>
       <path d="M 32.171875 -5.078125 
Q 28.375 -14.84375 24.75 -17.8125 
Q 21.140625 -20.796875 15.09375 -20.796875 
L 7.90625 -20.796875 
L 7.90625 -13.28125 
L 13.1875 -13.28125 
Q 16.890625 -13.28125 18.9375 -11.515625 
Q 21 -9.765625 23.484375 -3.21875 
L 25.09375 0.875 
L 2.984375 54.6875 
L 12.5 54.6875 
L 29.59375 11.921875 
L 46.6875 54.6875 
L 56.203125 54.6875 
z
" id="DejaVuSans-121"/>
      </defs>
      <use xlink:href="#DejaVuSans-116"/>
      <use x="39.208984" xlink:href="#DejaVuSans-101"/>
      <use x="100.732422" xlink:href="#DejaVuSans-114"/>
      <use x="140.095703" xlink:href="#DejaVuSans-109"/>
      <use x="237.507812" xlink:href="#DejaVuSans-105"/>
      <use x="265.291016" xlink:href="#DejaVuSans-110"/>
      <use x="328.669922" xlink:href="#DejaVuSans-97"/>
      <use x="389.949219" xlink:href="#DejaVuSans-108"/>
      <use x="417.732422" xlink:href="#DejaVuSans-32"/>
      <use x="449.519531" xlink:href="#DejaVuSans-118"/>
      <use x="508.699219" xlink:href="#DejaVuSans-101"/>
      <use x="570.222656" xlink:href="#DejaVuSans-108"/>
      <use x="598.005859" xlink:href="#DejaVuSans-111"/>
      <use x="659.1875" xlink:href="#DejaVuSans-99"/>
      <use x="714.167969" xlink:href="#DejaVuSans-105"/>
      <use x="741.951172" xlink:href="#DejaVuSans-116"/>
      <use x="781.160156" xlink:href="#DejaVuSans-121"/>
     </g>
    </g>
    <g id="PathCollection_2">
     <g>
      <use style="fill:#ff7f0e;stroke:#ff7f0e;" x="267.546875" xlink:href="#me468a6c95c" y="210.935313"/>
     </g>
    </g>
    <g id="text_18">
     <!-- write times -->
     <g transform="translate(285.546875 213.560313)scale(0.1 -0.1)">
      <defs>
       <path d="M 4.203125 54.6875 
L 13.1875 54.6875 
L 24.421875 12.015625 
L 35.59375 54.6875 
L 46.1875 54.6875 
L 57.421875 12.015625 
L 68.609375 54.6875 
L 77.59375 54.6875 
L 63.28125 0 
L 52.6875 0 
L 40.921875 44.828125 
L 29.109375 0 
L 18.5 0 
z
" id="DejaVuSans-119"/>
       <path d="M 44.28125 53.078125 
L 44.28125 44.578125 
Q 40.484375 46.53125 36.375 47.5 
Q 32.28125 48.484375 27.875 48.484375 
Q 21.1875 48.484375 17.84375 46.4375 
Q 14.5 44.390625 14.5 40.28125 
Q 14.5 37.15625 16.890625 35.375 
Q 19.28125 33.59375 26.515625 31.984375 
L 29.59375 31.296875 
Q 39.15625 29.25 43.1875 25.515625 
Q 47.21875 21.78125 47.21875 15.09375 
Q 47.21875 7.46875 41.1875 3.015625 
Q 35.15625 -1.421875 24.609375 -1.421875 
Q 20.21875 -1.421875 15.453125 -0.5625 
Q 10.6875 0.296875 5.421875 2 
L 5.421875 11.28125 
Q 10.40625 8.6875 15.234375 7.390625 
Q 20.0625 6.109375 24.8125 6.109375 
Q 31.15625 6.109375 34.5625 8.28125 
Q 37.984375 10.453125 37.984375 14.40625 
Q 37.984375 18.0625 35.515625 20.015625 
Q 33.0625 21.96875 24.703125 23.78125 
L 21.578125 24.515625 
Q 13.234375 26.265625 9.515625 29.90625 
Q 5.8125 33.546875 5.8125 39.890625 
Q 5.8125 47.609375 11.28125 51.796875 
Q 16.75 56 26.8125 56 
Q 31.78125 56 36.171875 55.265625 
Q 40.578125 54.546875 44.28125 53.078125 
z
" id="DejaVuSans-115"/>
      </defs>
      <use xlink:href="#DejaVuSans-119"/>
      <use x="81.787109" xlink:href="#DejaVuSans-114"/>
      <use x="122.900391" xlink:href="#DejaVuSans-105"/>
      <use x="150.683594" xlink:href="#DejaVuSans-116"/>
      <use x="189.892578" xlink:href="#DejaVuSans-101"/>
      <use x="251.416016" xlink:href="#DejaVuSans-32"/>
      <use x="283.203125" xlink:href="#DejaVuSans-116"/>
      <use x="322.412109" xlink:href="#DejaVuSans-105"/>
      <use x="350.195312" xlink:href="#DejaVuSans-109"/>
      <use x="447.607422" xlink:href="#DejaVuSans-101"/>
      <use x="509.130859" xlink:href="#DejaVuSans-115"/>
     </g>
    </g>
   </g>
  </g>
 </g>
 <defs>
  <clipPath id="pbe7b20e560">
   <rect height="217.44" width="334.8" x="43.78125" y="7.2"/>
  </clipPath>
 </defs>
</svg>
